<svg width="30" height="30" viewBox="0 0 30 30" fill="none" xmlns="http://www.w3.org/2000/svg">
<path d="M15.5312 18.1875V13.9375H13.4062V15H14.4688V18.1875H12.875V19.25H17.125V18.1875H15.5312ZM15 10.75C14.8424 10.75 14.6883 10.7967 14.5573 10.8843C14.4262 10.9719 14.3241 11.0963 14.2638 11.2419C14.2035 11.3875 14.1877 11.5478 14.2184 11.7023C14.2492 11.8569 14.3251 11.9989 14.4365 12.1104C14.548 12.2218 14.69 12.2977 14.8445 12.3284C14.9991 12.3592 15.1593 12.3434 15.305 12.2831C15.4506 12.2228 15.575 12.1206 15.6626 11.9896C15.7501 11.8585 15.7969 11.7045 15.7969 11.5469C15.7969 11.3355 15.7129 11.1328 15.5635 10.9834C15.414 10.834 15.2113 10.75 15 10.75Z" fill="#38464A"/>
<path d="M14.9375 22.4375C13.4665 22.4375 12.0285 22.0013 10.8055 21.1841C9.58236 20.3668 8.62908 19.2052 8.06615 17.8462C7.50322 16.4872 7.35594 14.9918 7.64291 13.549C7.92989 12.1063 8.63824 10.781 9.6784 9.74089C10.7186 8.70074 12.0438 7.99239 13.4865 7.70541C14.9293 7.41843 16.4247 7.56572 17.7837 8.12865C19.1427 8.69157 20.3043 9.64486 21.1216 10.8679C21.9388 12.091 22.375 13.529 22.375 15C22.375 16.9725 21.5914 18.8643 20.1966 20.2591C18.8018 21.6539 16.9101 22.4375 14.9375 22.4375ZM14.9375 8.625C13.6766 8.625 12.4441 8.99889 11.3957 9.69938C10.3474 10.3999 9.53028 11.3955 9.04777 12.5604C8.56526 13.7253 8.43902 15.0071 8.685 16.2437C8.93098 17.4803 9.53814 18.6162 10.4297 19.5078C11.3213 20.3994 12.4572 21.0065 13.6938 21.2525C14.9304 21.4985 16.2122 21.3722 17.3771 20.8897C18.542 20.4072 19.5376 19.5901 20.2381 18.5418C20.9386 17.4934 21.3125 16.2609 21.3125 15C21.3125 13.3092 20.6409 11.6877 19.4453 10.4922C18.2498 9.29665 16.6283 8.625 14.9375 8.625Z" fill="#38464A"/>
</svg>
