<svg width="30" height="30" viewBox="0 0 30 30" fill="none" xmlns="http://www.w3.org/2000/svg">
<path d="M13.9687 11.2286C13.8444 11.2286 13.7252 11.2772 13.6373 11.3638C13.5494 11.4504 13.5 11.5678 13.5 11.6902V15.7156L16.2654 17.5621C16.3692 17.6271 16.4947 17.6492 16.6149 17.6238C16.7352 17.5984 16.8404 17.5275 16.9081 17.4264C16.9757 17.3253 17.0003 17.202 16.9765 17.0832C16.9527 16.9644 16.8825 16.8595 16.7809 16.7912L14.4374 15.2263V11.6902C14.4374 11.5678 14.388 11.4504 14.3001 11.3638C14.2122 11.2772 14.093 11.2286 13.9687 11.2286Z" fill="#38464A"/>
<path d="M14.9994 7.61391C13.6604 7.61853 12.3468 7.97417 11.1935 8.64431C10.0403 9.31444 9.08902 10.2749 8.43742 11.427V9.09113C8.43742 8.9687 8.38804 8.85128 8.30014 8.76471C8.21224 8.67813 8.09302 8.6295 7.96871 8.6295C7.8444 8.6295 7.72518 8.67813 7.63728 8.76471C7.54938 8.85128 7.5 8.9687 7.5 9.09113V13.1535H11.6247C11.749 13.1535 11.8682 13.1048 11.9561 13.0183C12.044 12.9317 12.0934 12.8143 12.0934 12.6918C12.0934 12.5694 12.044 12.452 11.9561 12.3654C11.8682 12.2789 11.749 12.2302 11.6247 12.2302H9.07018C9.66133 11.0014 10.6309 9.98761 11.841 9.33299C13.051 8.67837 14.4399 8.41631 15.8099 8.58412C17.18 8.75192 18.4614 9.34103 19.4718 10.2676C20.4822 11.1942 21.1701 12.411 21.4377 13.745C21.7052 15.0789 21.5388 16.462 20.9621 17.6974C20.3853 18.9328 19.4276 19.9576 18.2253 20.6259C17.023 21.2942 15.6373 21.572 14.2654 21.4197C12.8935 21.2675 11.6053 20.6929 10.5841 19.7779C10.5386 19.737 10.4853 19.7053 10.4273 19.6846C10.3693 19.664 10.3078 19.6548 10.2462 19.6576C10.1846 19.6604 10.1242 19.6751 10.0684 19.7009C10.0125 19.7267 9.96244 19.763 9.92089 19.8079C9.87934 19.8527 9.84717 19.9052 9.82622 19.9623C9.80526 20.0194 9.79593 20.08 9.79876 20.1407C9.80159 20.2014 9.81652 20.2609 9.84271 20.3158C9.86889 20.3708 9.90581 20.4202 9.95136 20.4611C10.8523 21.2691 11.9396 21.8487 13.1191 22.1498C14.2986 22.4509 15.5349 22.4644 16.7209 22.1891C17.9069 21.9138 19.007 21.3581 19.9258 20.5699C20.8447 19.7817 21.5548 18.7849 21.9945 17.6657C22.4343 16.5465 22.5906 15.3386 22.4498 14.1465C22.309 12.9545 21.8754 11.8142 21.1865 10.8243C20.4976 9.83435 19.5742 9.02468 18.4961 8.46531C17.4181 7.90594 16.2179 7.61371 14.9994 7.61391Z" fill="#38464A"/>
</svg>
