<svg width="30" height="30" viewBox="0 0 30 30" fill="none" xmlns="http://www.w3.org/2000/svg">
<path d="M23.75 13.6438L8.925 13.6438L13.4625 7.72721C13.6747 7.45009 13.7767 7.09281 13.7463 6.73398C13.7158 6.37514 13.5553 6.04415 13.3 5.81381C13.0447 5.58347 12.7156 5.47266 12.3851 5.50574C12.0546 5.53883 11.7497 5.7131 11.5375 5.99023L5.2875 14.1324C5.24545 14.1971 5.20785 14.2652 5.175 14.3359C5.175 14.4038 5.175 14.4445 5.0875 14.5123C5.03084 14.6679 5.00118 14.8335 5 15.0008C5.00118 15.1682 5.03084 15.3338 5.0875 15.4894C5.0875 15.5572 5.0875 15.5979 5.175 15.6658C5.20785 15.7365 5.24545 15.8046 5.2875 15.8693L11.5375 24.0115C11.655 24.1646 11.8022 24.2878 11.9686 24.3723C12.1349 24.4567 12.3164 24.5003 12.5 24.5C12.7921 24.5006 13.0751 24.3902 13.3 24.1879C13.4266 24.074 13.5312 23.934 13.6079 23.7762C13.6846 23.6183 13.7318 23.4455 13.7469 23.2678C13.762 23.09 13.7447 22.9108 13.6959 22.7404C13.6471 22.5699 13.5678 22.4116 13.4625 22.2745L8.925 16.3579L23.75 16.3579C24.0815 16.3579 24.3995 16.2149 24.6339 15.9604C24.8683 15.7059 25 15.3607 25 15.0008C25 14.6409 24.8683 14.2958 24.6339 14.0413C24.3995 13.7868 24.0815 13.6438 23.75 13.6438Z" fill="#38464A"/>
</svg>
