<svg width="11" height="11" viewBox="0 0 11 11" fill="none" xmlns="http://www.w3.org/2000/svg">
<path d="M2.86 0C2.49832 0 2.2 0.29832 2.2 0.66V0.88H0.748C0.3256 0.88 0 1.2496 0 1.67772V9.76272C0 10.1904 0.3256 10.56 0.748 10.56H10.252C10.6744 10.56 11 10.1904 11 9.76228V1.67772C11 1.2496 10.6744 0.88 10.252 0.88H8.8V0.66C8.8 0.29832 8.50168 0 8.14 0C7.77832 0 7.48 0.29832 7.48 0.66V0.88H3.52V0.66C3.52 0.29832 3.22168 0 2.86 0ZM2.86 0.44C2.98584 0.44 3.08 0.53416 3.08 0.66V1.98C3.08 2.10584 2.98584 2.2 2.86 2.2C2.83091 2.20072 2.80198 2.19553 2.77496 2.18473C2.74794 2.17393 2.7234 2.15775 2.70282 2.13718C2.68225 2.1166 2.66607 2.09206 2.65527 2.06504C2.64447 2.03802 2.63928 2.00909 2.64 1.98V0.66C2.64 0.53416 2.73416 0.44 2.86 0.44ZM8.14 0.44C8.26584 0.44 8.36 0.53416 8.36 0.66V1.98C8.36 2.10584 8.26584 2.2 8.14 2.2C8.11091 2.20072 8.08198 2.19553 8.05496 2.18473C8.02794 2.17393 8.0034 2.15775 7.98282 2.13718C7.96225 2.1166 7.94607 2.09206 7.93527 2.06504C7.92447 2.03802 7.91928 2.00909 7.92 1.98V0.66C7.92 0.53416 8.01416 0.44 8.14 0.44ZM0.748 1.32H2.2V1.98C2.2 2.34168 2.49832 2.64 2.86 2.64C3.22168 2.64 3.52 2.34168 3.52 1.98V1.32H7.48V1.98C7.48 2.34168 7.77832 2.64 8.14 2.64C8.50168 2.64 8.8 2.34168 8.8 1.98V1.32H10.252C10.4157 1.32 10.56 1.4652 10.56 1.67772V9.76272C10.56 9.9748 10.4157 10.12 10.252 10.12H0.748C0.58432 10.12 0.44 9.9748 0.44 9.76228V1.67772C0.44 1.4652 0.58432 1.32 0.748 1.32ZM5.94 3.52C5.88165 3.52 5.82569 3.54318 5.78444 3.58444C5.74318 3.62569 5.72 3.68165 5.72 3.74V5.06C5.72 5.11835 5.74318 5.17431 5.78444 5.21556C5.82569 5.25682 5.88165 5.28 5.94 5.28H7.26C7.31835 5.28 7.37431 5.25682 7.41556 5.21556C7.45682 5.17431 7.48 5.11835 7.48 5.06V3.74C7.48 3.68165 7.45682 3.62569 7.41556 3.58444C7.37431 3.54318 7.31835 3.52 7.26 3.52H5.94ZM8.14 3.52C8.08165 3.52 8.02569 3.54318 7.98444 3.58444C7.94318 3.62569 7.92 3.68165 7.92 3.74V5.06C7.92 5.11835 7.94318 5.17431 7.98444 5.21556C8.02569 5.25682 8.08165 5.28 8.14 5.28H9.46C9.51835 5.28 9.57431 5.25682 9.61556 5.21556C9.65682 5.17431 9.68 5.11835 9.68 5.06V3.74C9.68 3.68165 9.65682 3.62569 9.61556 3.58444C9.57431 3.54318 9.51835 3.52 9.46 3.52H8.14ZM6.16 3.96H7.04V4.84H6.16V3.96ZM8.36 3.96H9.24V4.84H8.36V3.96ZM1.54 5.72C1.48165 5.72 1.42569 5.74318 1.38444 5.78444C1.34318 5.82569 1.32 5.88165 1.32 5.94V7.26C1.32 7.31835 1.34318 7.37431 1.38444 7.41556C1.42569 7.45682 1.48165 7.48 1.54 7.48H2.86C2.91835 7.48 2.97431 7.45682 3.01556 7.41556C3.05682 7.37431 3.08 7.31835 3.08 7.26V5.94C3.08 5.88165 3.05682 5.82569 3.01556 5.78444C2.97431 5.74318 2.91835 5.72 2.86 5.72H1.54ZM3.74 5.72C3.68165 5.72 3.62569 5.74318 3.58444 5.78444C3.54318 5.82569 3.52 5.88165 3.52 5.94V7.26C3.52 7.31835 3.54318 7.37431 3.58444 7.41556C3.62569 7.45682 3.68165 7.48 3.74 7.48H5.06C5.11835 7.48 5.17431 7.45682 5.21556 7.41556C5.25682 7.37431 5.28 7.31835 5.28 7.26V5.94C5.28 5.88165 5.25682 5.82569 5.21556 5.78444C5.17431 5.74318 5.11835 5.72 5.06 5.72H3.74ZM5.94 5.72C5.88165 5.72 5.82569 5.74318 5.78444 5.78444C5.74318 5.82569 5.72 5.88165 5.72 5.94V7.26C5.72 7.31835 5.74318 7.37431 5.78444 7.41556C5.82569 7.45682 5.88165 7.48 5.94 7.48H7.26C7.31835 7.48 7.37431 7.45682 7.41556 7.41556C7.45682 7.37431 7.48 7.31835 7.48 7.26V5.94C7.48 5.88165 7.45682 5.82569 7.41556 5.78444C7.37431 5.74318 7.31835 5.72 7.26 5.72H5.94ZM8.14 5.72C8.08165 5.72 8.02569 5.74318 7.98444 5.78444C7.94318 5.82569 7.92 5.88165 7.92 5.94V7.26C7.92 7.31835 7.94318 7.37431 7.98444 7.41556C8.02569 7.45682 8.08165 7.48 8.14 7.48H9.46C9.51835 7.48 9.57431 7.45682 9.61556 7.41556C9.65682 7.37431 9.68 7.31835 9.68 7.26V5.94C9.68 5.88165 9.65682 5.82569 9.61556 5.78444C9.57431 5.74318 9.51835 5.72 9.46 5.72H8.14ZM1.76 6.16H2.64V7.04H1.76V6.16ZM3.96 6.16H4.84V7.04H3.96V6.16ZM6.16 6.16H7.04V7.04H6.16V6.16ZM8.36 6.16H9.24V7.04H8.36V6.16ZM1.54 7.92C1.48165 7.92 1.42569 7.94318 1.38444 7.98444C1.34318 8.02569 1.32 8.08165 1.32 8.14V9.46C1.32 9.51835 1.34318 9.57431 1.38444 9.61556C1.42569 9.65682 1.48165 9.68 1.54 9.68H2.86C2.91835 9.68 2.97431 9.65682 3.01556 9.61556C3.05682 9.57431 3.08 9.51835 3.08 9.46V8.14C3.08 8.08165 3.05682 8.02569 3.01556 7.98444C2.97431 7.94318 2.91835 7.92 2.86 7.92H1.54ZM3.74 7.92C3.68165 7.92 3.62569 7.94318 3.58444 7.98444C3.54318 8.02569 3.52 8.08165 3.52 8.14V9.46C3.52 9.51835 3.54318 9.57431 3.58444 9.61556C3.62569 9.65682 3.68165 9.68 3.74 9.68H5.06C5.11835 9.68 5.17431 9.65682 5.21556 9.61556C5.25682 9.57431 5.28 9.51835 5.28 9.46V8.14C5.28 8.08165 5.25682 8.02569 5.21556 7.98444C5.17431 7.94318 5.11835 7.92 5.06 7.92H3.74ZM5.94 7.92C5.88165 7.92 5.82569 7.94318 5.78444 7.98444C5.74318 8.02569 5.72 8.08165 5.72 8.14V9.46C5.72 9.51835 5.74318 9.57431 5.78444 9.61556C5.82569 9.65682 5.88165 9.68 5.94 9.68H7.26C7.31835 9.68 7.37431 9.65682 7.41556 9.61556C7.45682 9.57431 7.48 9.51835 7.48 9.46V8.14C7.48 8.08165 7.45682 8.02569 7.41556 7.98444C7.37431 7.94318 7.31835 7.92 7.26 7.92H5.94ZM1.76 8.36H2.64V9.24H1.76V8.36ZM3.96 8.36H4.84V9.24H3.96V8.36ZM6.16 8.36H7.04V9.24H6.16V8.36Z" fill="#38464A"/>
</svg>
