<svg width="18" height="18" viewBox="0 0 18 18" fill="none" xmlns="http://www.w3.org/2000/svg">
<path d="M0.857448 2.12402L0.710419 2.71238L1.00454 2.78582L3.04705 3.29659L4.03765 4.78238L6.14134 11.0934L4.89998 13.5763H5.50059C5.42821 13.723 5.39058 13.8844 5.39062 14.048C5.39062 14.6398 5.87689 15.1261 6.46875 15.1261C7.06061 15.1261 7.54687 14.6398 7.54687 14.048C7.54687 13.8792 7.50718 13.7191 7.4369 13.5763H10.8912C10.8188 13.723 10.7812 13.8844 10.7812 14.048C10.7812 14.6398 11.2675 15.1261 11.8594 15.1261C12.4512 15.1261 12.9375 14.6398 12.9375 14.048C12.9375 13.8792 12.8978 13.7191 12.8275 13.5763H13.2407V12.9698H5.88124L6.65614 11.42H13.156L15.5144 4.34483H4.47476L3.4217 2.76507L1.15167 2.19761L0.857448 2.12402ZM4.73324 4.9512H7.78271V6.50101H5.24986L4.73324 4.9512ZM8.38916 4.9512H11.0171V6.50101H8.38916V4.9512ZM11.6235 4.9512H14.673L14.1564 6.50101H11.6235V4.9512ZM5.45194 7.10745H7.78271V8.65726H5.96857L5.45194 7.10745ZM8.38916 7.10745H11.0171V8.65726H8.38916V7.10745ZM11.6235 7.10745H13.9543L13.4377 8.65726H11.6235V7.10745ZM6.17072 9.2637H7.78271V10.8135H6.68727L6.17072 9.2637ZM8.38916 9.2637H11.0171V10.8135H8.38916V9.2637ZM11.6235 9.2637H13.2355L12.719 10.8135H11.6235V9.2637ZM6.46875 13.5762C6.73289 13.5762 6.94043 13.7837 6.94043 14.0479C6.94043 14.312 6.73289 14.5196 6.46875 14.5196C6.20461 14.5196 5.99707 14.312 5.99707 14.0479C5.99707 13.7837 6.20461 13.5762 6.46875 13.5762ZM11.8594 13.5762C12.1235 13.5762 12.3311 13.7837 12.3311 14.0479C12.3311 14.312 12.1235 14.5196 11.8594 14.5196C11.5952 14.5196 11.3877 14.312 11.3877 14.0479C11.3877 13.7837 11.5952 13.5762 11.8594 13.5762Z" fill="#38464A"/>
</svg>
