<svg width="30" height="30" viewBox="0 0 30 30" fill="none" xmlns="http://www.w3.org/2000/svg">
<path d="M10.875 14.625C10.875 14.9897 10.7301 15.3394 10.4723 15.5973C10.2144 15.8551 9.86467 16 9.5 16C9.13533 16 8.78559 15.8551 8.52773 15.5973C8.26987 15.3394 8.125 14.9897 8.125 14.625C8.125 14.2603 8.26987 13.9106 8.52773 13.6527C8.78559 13.3949 9.13533 13.25 9.5 13.25C9.86467 13.25 10.2144 13.3949 10.4723 13.6527C10.7301 13.9106 10.875 14.2603 10.875 14.625ZM16.375 14.625C16.375 14.9897 16.2301 15.3394 15.9723 15.5973C15.7144 15.8551 15.3647 16 15 16C14.6353 16 14.2856 15.8551 14.0277 15.5973C13.7699 15.3394 13.625 14.9897 13.625 14.625C13.625 14.2603 13.7699 13.9106 14.0277 13.6527C14.2856 13.3949 14.6353 13.25 15 13.25C15.3647 13.25 15.7144 13.3949 15.9723 13.6527C16.2301 13.9106 16.375 14.2603 16.375 14.625ZM20.5 16C20.8647 16 21.2144 15.8551 21.4723 15.5973C21.7301 15.3394 21.875 14.9897 21.875 14.625C21.875 14.2603 21.7301 13.9106 21.4723 13.6527C21.2144 13.3949 20.8647 13.25 20.5 13.25C20.1353 13.25 19.7856 13.3949 19.5277 13.6527C19.2699 13.9106 19.125 14.2603 19.125 14.625C19.125 14.9897 19.2699 15.3394 19.5277 15.5973C19.7856 15.8551 20.1353 16 20.5 16Z" fill="#38464A"/>
<path d="M6.97687 25.3541L7.00437 25.3486C9.52063 24.8495 11.0579 24.1909 11.7729 23.8292C12.8256 24.11 13.9105 24.2515 15 24.25C21.0748 24.25 26 19.9407 26 14.625C26 9.30925 21.0748 5 15 5C8.92525 5 4 9.30925 4 14.625C4 17.045 5.02163 19.2587 6.70875 20.95C6.59072 22.0364 6.34898 23.1057 5.98825 24.1372L5.98412 24.1524C5.88161 24.4478 5.76972 24.7399 5.64863 25.0282C5.54 25.284 5.75038 25.57 6.024 25.526C6.34253 25.4739 6.6602 25.4166 6.97687 25.3541ZM8.07687 21.0806C8.09614 20.8793 8.07076 20.6762 8.00254 20.4859C7.93433 20.2955 7.82497 20.1225 7.68225 19.9792C6.22475 18.5162 5.375 16.6435 5.375 14.625C5.375 10.236 9.5055 6.375 15 6.375C20.4945 6.375 24.625 10.236 24.625 14.625C24.625 19.0154 20.4945 22.875 15 22.875C14.0308 22.8764 13.0655 22.7507 12.129 22.501C11.8017 22.4133 11.4536 22.4495 11.1514 22.6027C10.6193 22.8722 9.44637 23.3865 7.52962 23.8306C7.79703 22.9329 7.98024 22.0123 8.07687 21.0806Z" fill="#38464A"/>
</svg>
