<svg width="14" height="14" viewBox="0 0 14 14" fill="none" xmlns="http://www.w3.org/2000/svg">
<path d="M8.2028 5.87264L7.125 6.49471V4.08333C7.125 3.92226 6.99441 3.79167 6.83334 3.79167C6.67226 3.79167 6.54167 3.92226 6.54167 4.08333V7C6.54195 7.16097 6.67237 7.29138 6.83334 7.29167C6.88457 7.29167 6.93488 7.2781 6.97917 7.25236L8.49447 6.37736C8.63386 6.29682 8.68153 6.11856 8.601 5.97917C8.52046 5.83978 8.34219 5.7921 8.2028 5.87264ZM6.83334 1.16666C3.61169 1.16666 1 3.77835 1 7C1 10.2217 3.61169 12.8333 6.83334 12.8333C10.0534 12.8296 12.6629 10.2201 12.6667 7C12.6667 3.77835 10.055 1.16666 6.83334 1.16666ZM6.83334 12.25C3.93383 12.25 1.58333 9.89951 1.58333 7C1.58333 4.10049 3.93383 1.75 6.83334 1.75C9.73153 1.75317 12.0802 4.10181 12.0833 7C12.0833 9.89951 9.73284 12.25 6.83334 12.25Z" fill="#38464A"/>
</svg>
