<svg width="30" height="30" viewBox="0 0 30 30" fill="none" xmlns="http://www.w3.org/2000/svg">
<path d="M16.9257 21.0563H13.0703C12.8425 21.0563 12.6612 20.8749 12.6612 20.6472C12.6612 20.4194 12.8425 20.238 13.0703 20.238H16.9257C17.1534 20.238 17.3348 20.4194 17.3348 20.6472C17.3348 20.8749 17.1534 21.0563 16.9257 21.0563ZM20.0766 16.9099C19.9247 16.9099 19.7771 16.8214 19.7054 16.6737C19.4565 16.138 19.1106 15.653 18.6846 15.2269C18.2012 14.7407 17.626 14.3553 16.9924 14.0932C16.3588 13.8311 15.6794 13.6974 14.9938 13.7C12.9902 13.7 11.1427 14.8684 10.2864 16.6779C10.1894 16.8804 9.94472 16.969 9.74225 16.872C9.64465 16.8252 9.56947 16.7418 9.53313 16.6399C9.49678 16.538 9.5022 16.4258 9.54822 16.3278C10.5395 14.2357 12.678 12.8817 14.9938 12.8817C16.6051 12.8817 18.1236 13.5102 19.2625 14.649C19.756 15.1426 20.1525 15.7078 20.4435 16.3278C20.5406 16.5345 20.452 16.775 20.2453 16.872C20.1947 16.8973 20.1356 16.9099 20.0766 16.9099ZM14.998 12.2363C13.1041 12.2363 11.5645 10.6967 11.5645 8.80277C11.5645 6.90885 13.1041 5.36925 14.998 5.36925C16.8919 5.36925 18.4315 6.90885 18.4315 8.80277C18.4315 10.6967 16.8877 12.2363 14.998 12.2363ZM14.998 6.19178C13.5554 6.19178 12.3828 7.3644 12.3828 8.80699C12.3828 10.2496 13.5554 11.4222 14.998 11.4222C16.4406 11.4222 17.6132 10.2496 17.6132 8.80699C17.6132 7.3644 16.4406 6.19178 14.998 6.19178Z" fill="#38464A"/>
<path d="M7.53187 15.8149C5.63795 15.8149 4.09834 14.2753 4.09834 12.3814C4.09834 10.4875 5.63795 8.94789 7.53187 8.94789C9.42579 8.94789 10.9654 10.4875 10.9654 12.3814C10.9612 14.2711 9.42157 15.8149 7.53187 15.8149ZM7.53187 9.7662C6.08928 9.7662 4.91665 10.9388 4.91665 12.3814C4.91665 13.824 6.08928 14.9966 7.53187 14.9966C8.97446 14.9966 10.1471 13.824 10.1471 12.3814C10.1471 10.9388 8.97024 9.7662 7.53187 9.7662ZM13.1504 24.6307H1.90915C1.68138 24.6307 1.5 24.4494 1.5 24.2216V22.488C1.5 19.1641 4.2038 16.4561 7.53187 16.4561C10.8557 16.4561 13.5637 19.1599 13.5637 22.488V24.2216C13.5626 24.3305 13.5186 24.4346 13.4412 24.5112C13.3638 24.5878 13.2593 24.6308 13.1504 24.6307ZM2.31831 23.8124H12.7454V22.488C12.7454 19.6154 10.4086 17.2744 7.53187 17.2744C4.65935 17.2744 2.31831 19.6112 2.31831 22.488V23.8124ZM22.4639 15.8149C20.57 15.8149 19.0304 14.2753 19.0304 12.3814C19.0304 10.4875 20.57 8.94789 22.4639 8.94789C24.3578 8.94789 25.8974 10.4875 25.8974 12.3814C25.8974 14.2711 24.3578 15.8149 22.4639 15.8149ZM22.4639 9.7662C21.0213 9.7662 19.8487 10.9388 19.8487 12.3814C19.8487 13.824 21.0213 14.9966 22.4639 14.9966C23.9065 14.9966 25.0791 13.824 25.0791 12.3814C25.0791 10.9388 23.9065 9.7662 22.4639 9.7662ZM28.0866 24.6307H16.8454C16.6176 24.6307 16.4363 24.4494 16.4363 24.2216V22.488C16.4363 19.1641 19.1401 16.4561 22.4681 16.4561C25.792 16.4561 28.5 19.1599 28.5 22.488V24.2216C28.4989 24.3305 28.4548 24.4346 28.3774 24.5112C28.3 24.5878 28.1955 24.6308 28.0866 24.6307ZM17.2546 23.8124H27.6817V22.488C27.6817 19.6154 25.3449 17.2744 22.4681 17.2744C19.5956 17.2744 17.2546 19.6112 17.2546 22.488V23.8124Z" fill="#38464A"/>
</svg>
