<svg width="30" height="30" viewBox="0 0 30 30" fill="none" xmlns="http://www.w3.org/2000/svg">
<path d="M13.75 8.75C13.75 8.02065 13.4603 7.32118 12.9445 6.80546C12.4288 6.28973 11.7293 6 11 6C10.2707 6 9.57118 6.28973 9.05546 6.80546C8.53973 7.32118 8.25 8.02065 8.25 8.75C8.25 9.47935 8.53973 10.1788 9.05546 10.6945C9.57118 11.2103 10.2707 11.5 11 11.5C11.7293 11.5 12.4288 11.2103 12.9445 10.6945C13.4603 10.1788 13.75 9.47935 13.75 8.75ZM9.25 8.75C9.25 8.52019 9.29526 8.29262 9.38321 8.0803C9.47116 7.86798 9.60006 7.67507 9.76256 7.51256C9.92507 7.35006 10.118 7.22116 10.3303 7.13321C10.5426 7.04527 10.7702 7 11 7C11.2298 7 11.4574 7.04527 11.6697 7.13321C11.882 7.22116 12.0749 7.35006 12.2374 7.51256C12.3999 7.67507 12.5288 7.86798 12.6168 8.0803C12.7047 8.29262 12.75 8.52019 12.75 8.75C12.75 9.21413 12.5656 9.65925 12.2374 9.98744C11.9092 10.3156 11.4641 10.5 11 10.5C10.5359 10.5 10.0908 10.3156 9.76256 9.98744C9.43437 9.65925 9.25 9.21413 9.25 8.75ZM7.5 12.5H11.683C11.519 12.81 11.397 13.146 11.325 13.5H7.5C7.36739 13.5 7.24021 13.5527 7.14645 13.6464C7.05268 13.7402 7 13.8674 7 14V14.5C7 15.76 8.099 17.114 10.096 17.43C9.774 17.65 9.506 17.943 9.315 18.284C7.205 17.713 6 16.087 6 14.5V14C6 13.6022 6.15804 13.2206 6.43934 12.9393C6.72064 12.658 7.10218 12.5 7.5 12.5ZM12.879 12.5C13.383 11.89 14.146 11.5 15 11.5C15.5989 11.499 16.1816 11.6939 16.6594 12.055C17.1371 12.4161 17.4836 12.9236 17.646 13.5C17.7907 14.0145 17.7826 14.56 17.6225 15.0699C17.4625 15.5799 17.1574 16.0322 16.7447 16.3717C16.3319 16.7112 15.8292 16.9232 15.298 16.9819C14.7667 17.0405 14.2299 16.9433 13.753 16.702C13.3858 16.5151 13.0653 16.2481 12.8152 15.9207C12.565 15.5934 12.3917 15.2139 12.3079 14.8106C12.224 14.4072 12.2319 13.9901 12.331 13.5902C12.43 13.1902 12.6166 12.8177 12.879 12.5ZM13.419 13.5C13.3205 13.7078 13.2639 13.9329 13.2524 14.1625C13.2409 14.3921 13.2748 14.6218 13.352 14.8383C13.4293 15.0549 13.5484 15.2541 13.7027 15.4246C13.8569 15.5951 14.0432 15.7335 14.251 15.832C14.4588 15.9305 14.6839 15.9871 14.9135 15.9986C15.1431 16.0101 15.3728 15.9762 15.5893 15.899C15.8059 15.8217 16.0051 15.7026 16.1756 15.5483C16.3461 15.3941 16.4845 15.2078 16.583 15C16.7819 14.5803 16.806 14.0988 16.6498 13.6613C16.4937 13.2239 16.1702 12.8664 15.7505 12.6675C15.3308 12.4686 14.8493 12.4445 14.4118 12.6007C13.9744 12.7568 13.6179 13.0803 13.419 13.5ZM20.685 18.284C20.4945 17.9428 20.2271 17.6507 19.904 17.431C21.9 17.114 23 15.759 23 14.5V14C23 13.8674 22.9473 13.7402 22.8536 13.6464C22.7598 13.5527 22.6326 13.5 22.5 13.5H18.675C18.6044 13.1513 18.4841 12.8146 18.318 12.5H22.5C22.8978 12.5 23.2794 12.658 23.5607 12.9393C23.842 13.2206 24 13.6022 24 14V14.5C24 16.087 22.794 17.712 20.685 18.284ZM19.487 18.371C19.2141 18.1314 18.8632 17.9995 18.5 18H11.5C11.3029 17.9995 11.1076 18.0379 10.9254 18.1131C10.7431 18.1883 10.5776 18.2988 10.4382 18.4382C10.2988 18.5776 10.1883 18.7431 10.1131 18.9254C10.0379 19.1076 9.99947 19.3029 10 19.5V20C10 21.971 11.86 24 15 24C18.14 24 20 21.971 20 20V19.5C20 19.05 19.802 18.646 19.487 18.37V18.371ZM11 19.5C11 19.3674 11.0527 19.2402 11.1464 19.1464C11.2402 19.0527 11.3674 19 11.5 19H18.5C18.6326 19 18.7598 19.0527 18.8536 19.1464C18.9473 19.2402 19 19.3674 19 19.5V20C19 21.438 17.568 23 15 23C12.432 23 11 21.438 11 20V19.5ZM19 6C19.7293 6 20.4288 6.28973 20.9445 6.80546C21.4603 7.32118 21.75 8.02065 21.75 8.75C21.75 9.47935 21.4603 10.1788 20.9445 10.6945C20.4288 11.2103 19.7293 11.5 19 11.5C18.2707 11.5 17.5712 11.2103 17.0555 10.6945C16.5397 10.1788 16.25 9.47935 16.25 8.75C16.25 8.02065 16.5397 7.32118 17.0555 6.80546C17.5712 6.28973 18.2707 6 19 6ZM19 7C18.5359 7 18.0908 7.18437 17.7626 7.51256C17.4344 7.84075 17.25 8.28587 17.25 8.75C17.25 9.21413 17.4344 9.65925 17.7626 9.98744C18.0908 10.3156 18.5359 10.5 19 10.5C19.4641 10.5 19.9092 10.3156 20.2374 9.98744C20.5656 9.65925 20.75 9.21413 20.75 8.75C20.75 8.28587 20.5656 7.84075 20.2374 7.51256C19.9092 7.18437 19.4641 7 19 7Z" fill="#38464A"/>
</svg>
