<svg width="30" height="30" viewBox="0 0 30 30" fill="none" xmlns="http://www.w3.org/2000/svg">
<path d="M7.40357 14.9772C8.09707 16.5131 9.27816 18.177 10.6438 19.5427C12.1004 20.9992 13.7073 22.1528 15.1686 22.7902C15.9643 23.1375 16.6761 23.3111 17.2753 23.3111C17.8709 23.3111 18.3552 23.1391 18.6988 22.7952L20.0773 21.4172C20.496 20.9981 20.4585 20.2789 19.9935 19.8137L17.9623 17.7823C17.4968 17.3173 16.7772 17.28 16.3587 17.6987L15.7263 18.3312C15.551 18.4623 14.4678 18.1286 13.2492 16.91C12.0298 15.6909 11.6954 14.6069 11.8272 14.4333L12.4604 13.8002C12.8791 13.3812 12.8416 12.6616 12.3766 12.1965L10.345 10.1654C9.87951 9.70042 9.16036 9.66266 8.74141 10.0818L7.36344 11.4598C6.6754 12.1476 6.68965 13.3969 7.40334 14.9772H7.40357ZM8.03532 12.1315L9.41354 10.7535C9.42304 10.744 9.44204 10.7383 9.4665 10.7383C9.52017 10.7383 9.60164 10.7651 9.6736 10.8371L11.7047 12.8682C11.8097 12.9732 11.8187 13.0983 11.7885 13.1285L11.1554 13.7614C10.3683 14.549 11.2748 16.2792 12.5773 17.5816C13.2259 18.23 13.9391 18.7482 14.5856 19.0401C15.6496 19.5208 16.1775 19.2235 16.3972 19.0033L17.0304 18.3704C17.0608 18.34 17.1855 18.3492 17.2907 18.454L19.3216 20.4853C19.4265 20.5903 19.4356 20.7152 19.4054 20.7454L18.0272 22.1236C17.6448 22.5062 16.7183 22.43 15.5486 21.9193C14.1935 21.3282 12.6901 20.2454 11.3154 18.871C10.0277 17.5833 8.91764 16.0212 8.26926 14.586C7.74534 13.4263 7.6577 12.5089 8.03509 12.1315H8.03532ZM23.1451 16.03C23.1451 10.8787 18.9539 6.6875 13.8025 6.6875V7.6375C18.4302 7.6375 22.1951 11.4026 22.1951 16.03H23.1451Z" fill="#38464A"/>
<path d="M13.9788 9.28242V10.2324C17.2729 10.2324 19.9531 12.9124 19.9531 16.2065H20.9031C20.9031 12.3885 17.7966 9.28242 13.9788 9.28242Z" fill="#38464A"/>
<path d="M17.5346 16.2065H18.4846C18.4846 13.7223 16.4635 11.7007 13.979 11.7007V12.6507C15.9396 12.6507 17.5346 14.2459 17.5346 16.2065Z" fill="#38464A"/>
</svg>
