<svg width="25" height="25" viewBox="0 0 25 25" fill="none" xmlns="http://www.w3.org/2000/svg">
<path d="M10.8542 5.68751H13.9792C13.9792 5.27311 13.8146 4.87568 13.5216 4.58266C13.2285 4.28963 12.8311 4.12501 12.4167 4.12501C12.0023 4.12501 11.6049 4.28963 11.3119 4.58266C11.0188 4.87568 10.8542 5.27311 10.8542 5.68751ZM9.81254 5.68751C9.81254 4.99684 10.0869 4.33446 10.5753 3.84609C11.0637 3.35771 11.726 3.08334 12.4167 3.08334C13.1074 3.08334 13.7698 3.35771 14.2581 3.84609C14.7465 4.33446 15.0209 4.99684 15.0209 5.68751H20.2292C20.3673 5.68751 20.4998 5.74238 20.5975 5.84006C20.6952 5.93773 20.75 6.07021 20.75 6.20834C20.75 6.34648 20.6952 6.47895 20.5975 6.57663C20.4998 6.6743 20.3673 6.72918 20.2292 6.72918H19.1313L17.8875 17.5042C17.7996 18.2658 17.4348 18.9686 16.8624 19.4787C16.29 19.9889 15.5501 20.2708 14.7834 20.2708H10.05C9.28333 20.2708 8.54339 19.9889 7.97102 19.4787C7.39865 18.9686 7.03379 18.2658 6.94587 17.5042L5.70212 6.72918H4.60421C4.46607 6.72918 4.3336 6.6743 4.23592 6.57663C4.13825 6.47895 4.08337 6.34648 4.08337 6.20834C4.08337 6.07021 4.13825 5.93773 4.23592 5.84006C4.3336 5.74238 4.46607 5.68751 4.60421 5.68751H9.81254ZM7.98025 17.3854C8.03903 17.8931 8.28238 18.3615 8.66402 18.7015C9.04566 19.0414 9.53895 19.2292 10.05 19.2292H14.7834C15.2945 19.2292 15.7878 19.0414 16.1694 18.7015C16.551 18.3615 16.7944 17.8931 16.8532 17.3854L18.0823 6.72918H6.75108L7.98025 17.3854ZM10.8542 9.33334C10.9923 9.33334 11.1248 9.38821 11.2225 9.48589C11.3202 9.58356 11.375 9.71604 11.375 9.85417V16.1042C11.375 16.2423 11.3202 16.3748 11.2225 16.4725C11.1248 16.5701 10.9923 16.625 10.8542 16.625C10.7161 16.625 10.5836 16.5701 10.4859 16.4725C10.3882 16.3748 10.3334 16.2423 10.3334 16.1042V9.85417C10.3334 9.71604 10.3882 9.58356 10.4859 9.48589C10.5836 9.38821 10.7161 9.33334 10.8542 9.33334ZM14.5 9.85417C14.5 9.71604 14.4452 9.58356 14.3475 9.48589C14.2498 9.38821 14.1173 9.33334 13.9792 9.33334C13.8411 9.33334 13.7086 9.38821 13.6109 9.48589C13.5132 9.58356 13.4584 9.71604 13.4584 9.85417V16.1042C13.4584 16.2423 13.5132 16.3748 13.6109 16.4725C13.7086 16.5701 13.8411 16.625 13.9792 16.625C14.1173 16.625 14.2498 16.5701 14.3475 16.4725C14.4452 16.3748 14.5 16.2423 14.5 16.1042V9.85417Z" fill="#CD0404"/>
</svg>
