<svg width="30" height="30" viewBox="0 0 30 30" fill="none" xmlns="http://www.w3.org/2000/svg">
<path d="M13.3542 8.18751H16.4792C16.4792 7.77311 16.3146 7.37568 16.0216 7.08266C15.7285 6.78963 15.3311 6.62501 14.9167 6.62501C14.5023 6.62501 14.1049 6.78963 13.8119 7.08266C13.5188 7.37568 13.3542 7.77311 13.3542 8.18751ZM12.3125 8.18751C12.3125 7.49684 12.5869 6.83446 13.0753 6.34609C13.5637 5.85771 14.226 5.58334 14.9167 5.58334C15.6074 5.58334 16.2698 5.85771 16.7581 6.34609C17.2465 6.83446 17.5209 7.49684 17.5209 8.18751H22.7292C22.8673 8.18751 22.9998 8.24238 23.0975 8.34006C23.1952 8.43773 23.25 8.57021 23.25 8.70834C23.25 8.84648 23.1952 8.97895 23.0975 9.07663C22.9998 9.1743 22.8673 9.22918 22.7292 9.22918H21.6313L20.3875 20.0042C20.2996 20.7658 19.9348 21.4686 19.3624 21.9787C18.79 22.4889 18.0501 22.7708 17.2834 22.7708H12.55C11.7833 22.7708 11.0434 22.4889 10.471 21.9787C9.89865 21.4686 9.53379 20.7658 9.44587 20.0042L8.20212 9.22918H7.10421C6.96607 9.22918 6.8336 9.1743 6.73592 9.07663C6.63825 8.97895 6.58337 8.84648 6.58337 8.70834C6.58337 8.57021 6.63825 8.43773 6.73592 8.34006C6.8336 8.24238 6.96607 8.18751 7.10421 8.18751H12.3125ZM10.4803 19.8854C10.539 20.3931 10.7824 20.8615 11.164 21.2015C11.5457 21.5414 12.0389 21.7292 12.55 21.7292H17.2834C17.7945 21.7292 18.2878 21.5414 18.6694 21.2015C19.051 20.8615 19.2944 20.3931 19.3532 19.8854L20.5823 9.22918H9.25108L10.4803 19.8854ZM13.3542 11.8333C13.4923 11.8333 13.6248 11.8882 13.7225 11.9859C13.8202 12.0836 13.875 12.216 13.875 12.3542V18.6042C13.875 18.7423 13.8202 18.8748 13.7225 18.9725C13.6248 19.0701 13.4923 19.125 13.3542 19.125C13.2161 19.125 13.0836 19.0701 12.9859 18.9725C12.8882 18.8748 12.8334 18.7423 12.8334 18.6042V12.3542C12.8334 12.216 12.8882 12.0836 12.9859 11.9859C13.0836 11.8882 13.2161 11.8333 13.3542 11.8333ZM17 12.3542C17 12.216 16.9452 12.0836 16.8475 11.9859C16.7498 11.8882 16.6173 11.8333 16.4792 11.8333C16.3411 11.8333 16.2086 11.8882 16.1109 11.9859C16.0132 12.0836 15.9584 12.216 15.9584 12.3542V18.6042C15.9584 18.7423 16.0132 18.8748 16.1109 18.9725C16.2086 19.0701 16.3411 19.125 16.4792 19.125C16.6173 19.125 16.7498 19.0701 16.8475 18.9725C16.9452 18.8748 17 18.7423 17 18.6042V12.3542Z" fill="#CD0404"/>
</svg>
