<svg width="25" height="25" viewBox="0 0 25 25" fill="none" xmlns="http://www.w3.org/2000/svg">
<path d="M19.8415 5.15863C19.5945 4.91153 19.3011 4.71551 18.9783 4.58178C18.6554 4.44804 18.3094 4.37921 17.96 4.37921C17.6105 4.37921 17.2645 4.44804 16.9417 4.58178C16.6189 4.71551 16.3255 4.91153 16.0784 5.15863L6.07221 15.1649C5.77446 15.4626 5.55792 15.8321 5.44492 16.2381L4.39807 19.9768C4.37389 20.0635 4.37318 20.155 4.39601 20.2421C4.41885 20.3291 4.46442 20.4085 4.52804 20.4721C4.59167 20.5357 4.67106 20.5813 4.7581 20.6042C4.84513 20.627 4.93667 20.6263 5.02334 20.6021L8.76138 19.5553C9.16735 19.4417 9.53721 19.2254 9.83529 18.9273L19.8415 8.92104C20.3404 8.42207 20.6206 7.7454 20.6206 7.03984C20.6206 6.33428 20.3404 5.6576 19.8415 5.15863ZM16.7964 5.87593C17.1051 5.56733 17.5237 5.394 17.9602 5.39406C18.3967 5.39412 18.8153 5.56758 19.1239 5.87626C19.4325 6.18495 19.6058 6.60359 19.6058 7.04008C19.6057 7.47656 19.4322 7.89515 19.1236 8.20375L18.0815 9.24518L15.7543 6.91736L16.7964 5.87593ZM15.037 7.63533L17.3648 9.96314L9.11732 18.21C8.94264 18.3847 8.7259 18.5115 8.488 18.5781L5.61815 19.3813L6.42138 16.5122C6.48813 16.2743 6.61489 16.0576 6.7895 15.8828L15.037 7.63533Z" fill="#38464A"/>
</svg>
