<svg width="30" height="30" viewBox="0 0 30 30" fill="none" xmlns="http://www.w3.org/2000/svg">
<path d="M6.60393 14.9748C7.37043 16.6724 8.67585 18.5115 10.1852 20.0208C11.7951 21.6308 13.5712 22.9057 15.1864 23.6103C16.0657 23.994 16.8525 24.1859 17.5147 24.1859C18.1731 24.1859 18.7083 23.9959 19.0882 23.6158L20.6117 22.0928C21.0745 21.6294 21.033 20.8346 20.5191 20.3204L18.2742 18.0752C17.7597 17.5612 16.9643 17.52 16.5018 17.9828L15.8027 18.6818C15.609 18.8267 14.4117 18.4579 13.0648 17.111C11.7172 15.7636 11.3476 14.5656 11.4933 14.3737L12.1931 13.6739C12.6559 13.2108 12.6144 12.4154 12.1004 11.9015L9.855 9.65655C9.3405 9.14258 8.54565 9.10084 8.0826 9.56415L6.55957 11.0872C5.79911 11.8474 5.81486 13.2281 6.60367 14.9748H6.60393ZM7.30218 11.8295L8.82547 10.3065C8.83597 10.296 8.85697 10.2897 8.88401 10.2897C8.94333 10.2897 9.03337 10.3194 9.11291 10.3989L11.3578 12.6438C11.4738 12.7598 11.4838 12.8982 11.4505 12.9315L10.7506 13.6311C9.88072 14.5015 10.8827 16.4138 12.3222 17.8534C13.0391 18.57 13.8274 19.1428 14.5419 19.4654C15.7179 19.9967 16.3015 19.668 16.5443 19.4247L17.2441 18.7251C17.2777 18.6915 17.4155 18.7018 17.5318 18.8175L19.7764 21.0627C19.8925 21.1787 19.9024 21.3168 19.8691 21.3501L18.3458 22.8734C17.9232 23.2963 16.8992 23.2121 15.6064 22.6477C14.1085 21.9943 12.4469 20.7976 10.9276 19.2785C9.5043 17.8552 8.27737 16.1288 7.56075 14.5425C6.98167 13.2607 6.88481 12.2466 7.30192 11.8295H7.30218ZM24.0024 16.1385C24.0024 10.4448 19.3701 5.8125 13.6765 5.8125V6.8625C18.7913 6.8625 22.9524 11.0239 22.9524 16.1385H24.0024Z" fill="#38464A"/>
<path d="M13.8712 8.68057V9.73057C17.5121 9.73057 20.4744 12.6926 20.4744 16.3335H21.5244C21.5244 12.1135 18.0909 8.68057 13.8712 8.68057Z" fill="#38464A"/>
<path d="M17.8014 16.3335H18.8514C18.8514 13.5877 16.6175 11.3533 13.8715 11.3533V12.4033C16.0385 12.4033 17.8014 14.1666 17.8014 16.3335Z" fill="#38464A"/>
</svg>
