<svg width="30" height="30" viewBox="0 0 30 30" fill="none" xmlns="http://www.w3.org/2000/svg">
<path d="M21.0244 20.9963H8.97562C8.34181 20.9955 7.73418 20.7434 7.28601 20.2952C6.83784 19.8471 6.58574 19.2394 6.58499 18.6056V11.3944C6.58574 10.7606 6.83784 10.1529 7.28601 9.70477C7.73418 9.25661 8.34181 9.0045 8.97562 9.00375H21.0244C21.6582 9.0045 22.2658 9.25661 22.714 9.70477C23.1621 10.1529 23.4142 10.7606 23.415 11.3944V18.6056C23.4142 19.2394 23.1621 19.8471 22.714 20.2952C22.2658 20.7434 21.6582 20.9955 21.0244 20.9963ZM8.97562 9.8475C8.56536 9.8475 8.17191 10.0105 7.88181 10.3006C7.59171 10.5907 7.42874 10.9841 7.42874 11.3944V18.6056C7.42874 19.0159 7.59171 19.4093 7.88181 19.6994C8.17191 19.9895 8.56536 20.1525 8.97562 20.1525H21.0244C21.4346 20.1525 21.8281 19.9895 22.1182 19.6994C22.4083 19.4093 22.5712 19.0159 22.5712 18.6056V11.3944C22.5712 10.9841 22.4083 10.5907 22.1182 10.3006C21.8281 10.0105 21.4346 9.8475 21.0244 9.8475H8.97562Z" fill="#38464A"/>
<path d="M15 16.71C14.4796 16.7108 13.9731 16.542 13.5572 16.2291L6.99001 11.2622C6.94361 11.2296 6.90425 11.188 6.87427 11.1399C6.8443 11.0918 6.82434 11.0381 6.81557 10.9821C6.8068 10.9261 6.8094 10.8689 6.82323 10.814C6.83706 10.759 6.86182 10.7074 6.89605 10.6622C6.93027 10.617 6.97325 10.5792 7.02242 10.5509C7.07159 10.5227 7.12594 10.5047 7.18223 10.498C7.23851 10.4912 7.29558 10.4959 7.35002 10.5117C7.40445 10.5275 7.45515 10.5542 7.49907 10.59L14.0663 15.5625C14.3359 15.7638 14.6635 15.8726 15 15.8726C15.3366 15.8726 15.6641 15.7638 15.9338 15.5625L22.501 10.59C22.5449 10.5542 22.5956 10.5275 22.65 10.5117C22.7044 10.4959 22.7615 10.4912 22.8178 10.498C22.8741 10.5047 22.9284 10.5227 22.9776 10.5509C23.0268 10.5792 23.0698 10.617 23.104 10.6622C23.1382 10.7074 23.163 10.759 23.1768 10.814C23.1906 10.8689 23.1932 10.9261 23.1845 10.9821C23.1757 11.0381 23.1557 11.0918 23.1257 11.1399C23.0958 11.188 23.0564 11.2296 23.01 11.2622L16.4428 16.2291C16.027 16.542 15.5204 16.7108 15 16.71Z" fill="#38464A"/>
<path d="M7.1728 19.8206C7.08724 19.8208 7.00366 19.7949 6.93315 19.7464C6.86265 19.6979 6.80855 19.6291 6.77804 19.5492C6.74753 19.4693 6.74204 19.3819 6.76232 19.2988C6.78259 19.2157 6.82766 19.1407 6.89155 19.0838L12.0666 14.4684C12.1501 14.3939 12.2598 14.3555 12.3717 14.3618C12.4835 14.3682 12.5882 14.4187 12.6628 14.5022C12.7374 14.5857 12.7757 14.6955 12.7694 14.8073C12.7631 14.9191 12.7126 15.0239 12.6291 15.0984L7.45405 19.7138C7.3772 19.7837 7.2767 19.8219 7.1728 19.8206ZM22.8272 19.8206C22.7233 19.8219 22.6228 19.7837 22.5459 19.7138L17.3709 15.0984C17.2874 15.0239 17.2369 14.9191 17.2306 14.8073C17.2242 14.6955 17.2626 14.5857 17.3372 14.5022C17.4118 14.4187 17.5165 14.3682 17.6283 14.3618C17.7401 14.3555 17.8499 14.3939 17.9334 14.4684L23.1056 19.0838C23.1695 19.1407 23.2146 19.2157 23.2348 19.2988C23.2551 19.3819 23.2496 19.4693 23.2191 19.5492C23.1886 19.6291 23.1345 19.6979 23.064 19.7464C22.9935 19.7949 22.9099 19.8208 22.8244 19.8206H22.8272Z" fill="#38464A"/>
</svg>
