<svg width="25" height="25" viewBox="0 0 25 25" fill="none" xmlns="http://www.w3.org/2000/svg">
<path fill-rule="evenodd" clip-rule="evenodd" d="M8.05036 14.4379C7.07067 13.4232 6.46304 12.1069 6.32624 10.703C6.18945 9.29917 6.53154 7.89033 7.2969 6.70554C8.06226 5.52074 9.20588 4.62967 10.5418 4.17719C11.8778 3.72472 13.3275 3.73744 14.6553 4.2133C15.9831 4.68915 17.1109 5.60015 17.8554 6.7982C18.5998 7.99624 18.9171 9.41088 18.7557 10.8121C18.5943 12.2133 17.9637 13.5188 16.9663 14.5162C15.969 15.5136 14.6636 16.1443 13.2623 16.3058L13.225 18.412L14.9053 18.4414C15.0159 18.4414 15.1255 18.4634 15.2275 18.5062C15.3296 18.549 15.4221 18.6117 15.4996 18.6906C15.5772 18.7696 15.6382 18.8631 15.6792 18.9659C15.7202 19.0687 15.7404 19.1786 15.7384 19.2892C15.7365 19.3999 15.7126 19.509 15.668 19.6103C15.6234 19.7116 15.5591 19.803 15.4789 19.8792C15.3986 19.9553 15.304 20.0148 15.2005 20.054C15.097 20.0932 14.9868 20.1114 14.8762 20.1075L13.1965 20.0788L13.1529 22.5769C13.1489 22.7979 13.0574 23.0083 12.8983 23.1618C12.7392 23.3153 12.5257 23.3993 12.3047 23.3954C12.0836 23.3915 11.8732 23.2999 11.7197 23.1408C11.5662 22.9817 11.4822 22.7682 11.4861 22.5472L11.5297 20.0491L9.87655 20.0203C9.76589 20.0203 9.65635 19.9982 9.55431 19.9554C9.45226 19.9126 9.35977 19.8499 9.28221 19.771C9.20466 19.6921 9.1436 19.5985 9.10259 19.4957C9.06159 19.3929 9.04147 19.283 9.0434 19.1724C9.04533 19.0617 9.06928 18.9526 9.11384 18.8513C9.15841 18.75 9.2227 18.6586 9.30296 18.5825C9.38322 18.5063 9.47785 18.4469 9.58132 18.4077C9.6848 18.3685 9.79504 18.3502 9.90563 18.3541L11.5588 18.383L11.5956 16.2737C10.2443 16.0678 8.99841 15.4227 8.05036 14.4379ZM9.36239 6.79934C8.48797 7.64375 7.98482 8.80094 7.9636 10.0163C7.94239 11.2317 8.40485 12.4058 9.24926 13.2802C10.0937 14.1546 11.2509 14.6577 12.4662 14.679C13.6816 14.7002 14.8557 14.2377 15.7301 13.3933C16.6045 12.5489 17.1077 11.3917 17.1289 10.1763C17.1501 8.96091 16.6876 7.78688 15.8432 6.91246C14.9988 6.03805 13.8416 5.53489 12.6262 5.51368C11.4108 5.49246 10.2368 5.95493 9.36239 6.79934Z" fill="#38464A"/>
</svg>
