<svg width="30" height="30" viewBox="0 0 30 30" fill="none" xmlns="http://www.w3.org/2000/svg">
<path d="M16.4977 19.7104H13.4991C13.322 19.7104 13.1809 19.5694 13.1809 19.3922C13.1809 19.215 13.322 19.074 13.4991 19.074H16.4977C16.6749 19.074 16.8159 19.215 16.8159 19.3922C16.8159 19.5694 16.6749 19.7104 16.4977 19.7104ZM18.9484 16.4855C18.8303 16.4855 18.7155 16.4166 18.6597 16.3017C18.4661 15.8851 18.1971 15.5078 17.8658 15.1765C17.4898 14.7983 17.0424 14.4985 16.5496 14.2947C16.0568 14.0908 15.5284 13.9868 14.9951 13.9888C13.4368 13.9888 11.9998 14.8976 11.3338 16.305C11.2584 16.4625 11.0681 16.5314 10.9106 16.4559C10.8347 16.4196 10.7762 16.3547 10.748 16.2754C10.7197 16.1961 10.7239 16.1089 10.7597 16.0327C11.5307 14.4055 13.194 13.3524 14.9951 13.3524C16.2484 13.3524 17.4294 13.8412 18.3152 14.727C18.6991 15.1108 19.0075 15.5505 19.2338 16.0327C19.3093 16.1935 19.2404 16.3805 19.0796 16.4559C19.0403 16.4756 18.9943 16.4855 18.9484 16.4855ZM14.9984 12.8504C13.5254 12.8504 12.3279 11.6529 12.3279 10.1799C12.3279 8.70684 13.5254 7.50937 14.9984 7.50937C16.4715 7.50937 17.6689 8.70684 17.6689 10.1799C17.6689 11.6529 16.4682 12.8504 14.9984 12.8504ZM14.9984 8.14911C13.8764 8.14911 12.9643 9.06116 12.9643 10.1832C12.9643 11.3052 13.8764 12.2172 14.9984 12.2172C16.1204 12.2172 17.0325 11.3052 17.0325 10.1832C17.0325 9.06116 16.1204 8.14911 14.9984 8.14911Z" fill="#38464A"/>
<path d="M9.19145 15.6339C7.7184 15.6339 6.52093 14.4364 6.52093 12.9634C6.52093 11.4903 7.7184 10.2928 9.19145 10.2928C10.6645 10.2928 11.862 11.4903 11.862 12.9634C11.8587 14.4331 10.6612 15.6339 9.19145 15.6339ZM9.19145 10.9293C8.06944 10.9293 7.1574 11.8413 7.1574 12.9634C7.1574 14.0854 8.06944 14.9974 9.19145 14.9974C10.3135 14.9974 11.2255 14.0854 11.2255 12.9634C11.2255 11.8413 10.3102 10.9293 9.19145 10.9293ZM13.5614 22.4906H4.81823C4.64107 22.4906 4.5 22.3495 4.5 22.1724V20.824C4.5 18.2388 6.60295 16.1325 9.19145 16.1325C11.7767 16.1325 13.8829 18.2355 13.8829 20.824V22.1724C13.882 22.2571 13.8478 22.338 13.7876 22.3976C13.7274 22.4572 13.6461 22.4906 13.5614 22.4906ZM5.13646 21.8541H13.2464V20.824C13.2464 18.5898 11.4289 16.769 9.19145 16.769C6.95727 16.769 5.13646 18.5865 5.13646 20.824V21.8541ZM20.8053 15.6339C19.3322 15.6339 18.1347 14.4364 18.1347 12.9634C18.1347 11.4903 19.3322 10.2928 20.8053 10.2928C22.2783 10.2928 23.4758 11.4903 23.4758 12.9634C23.4758 14.4331 22.2783 15.6339 20.8053 15.6339ZM20.8053 10.9293C19.6833 10.9293 18.7712 11.8413 18.7712 12.9634C18.7712 14.0854 19.6833 14.9974 20.8053 14.9974C21.9273 14.9974 22.8393 14.0854 22.8393 12.9634C22.8393 11.8413 21.9273 10.9293 20.8053 10.9293ZM25.1785 22.4906H16.4353C16.2582 22.4906 16.1171 22.3495 16.1171 22.1724V20.824C16.1171 18.2388 18.22 16.1325 20.8085 16.1325C23.3938 16.1325 25.5 18.2355 25.5 20.824V22.1724C25.4991 22.2571 25.4649 22.338 25.4047 22.3976C25.3445 22.4572 25.2632 22.4906 25.1785 22.4906ZM16.7536 21.8541H24.8635V20.824C24.8635 18.5898 23.046 16.769 20.8085 16.769C18.5744 16.769 16.7536 18.5865 16.7536 20.824V21.8541Z" fill="#38464A"/>
</svg>
