<svg width="30" height="30" viewBox="0 0 30 30" fill="none" xmlns="http://www.w3.org/2000/svg">
<path d="M22.65 9.0585H8.51167C8.04417 9.0585 7.66167 9.441 7.66167 9.9085V10.5942H7.50583C7.23907 10.5942 6.98323 10.7001 6.7946 10.8888C6.60597 11.0774 6.5 11.3332 6.5 11.6C6.5 11.8668 6.60597 12.1226 6.7946 12.3112C6.98323 12.4999 7.23907 12.6058 7.50583 12.6058H7.66167V13.9942H7.50583C7.23907 13.9942 6.98323 14.1001 6.7946 14.2888C6.60597 14.4774 6.5 14.7332 6.5 15C6.5 15.2668 6.60597 15.5226 6.7946 15.7112C6.98323 15.8999 7.23907 16.0058 7.50583 16.0058H7.66167V17.3942H7.50583C7.23907 17.3942 6.98323 17.5001 6.7946 17.6888C6.60597 17.8774 6.5 18.1332 6.5 18.4C6.5 18.6668 6.60597 18.9226 6.7946 19.1112C6.98323 19.2999 7.23907 19.4058 7.50583 19.4058H7.66167V20.0915C7.66167 20.559 8.04417 20.9415 8.51167 20.9415H22.65C23.1175 20.9415 23.5 20.559 23.5 20.0915V9.9085C23.5 9.441 23.1175 9.0585 22.65 9.0585ZM7.06667 11.6C7.06667 11.3592 7.26217 11.1608 7.50583 11.1608H8.38417C8.625 11.1608 8.82333 11.3563 8.82333 11.6C8.82333 11.8437 8.625 12.0392 8.38417 12.0392H7.50583C7.26217 12.0392 7.06667 11.8408 7.06667 11.6ZM7.06667 15C7.06667 14.7592 7.26217 14.5608 7.50583 14.5608H8.38417C8.625 14.5608 8.82333 14.7563 8.82333 15C8.82333 15.2437 8.625 15.4392 8.38417 15.4392H7.50583C7.26217 15.4392 7.06667 15.2408 7.06667 15ZM7.06667 18.4C7.06667 18.1592 7.26217 17.9608 7.50583 17.9608H8.38417C8.625 17.9608 8.82333 18.1563 8.82333 18.4C8.82333 18.6437 8.625 18.8392 8.38417 18.8392H7.50583C7.26217 18.8392 7.06667 18.6408 7.06667 18.4ZM8.22833 20.0915V19.4058H8.38417C8.65093 19.4058 8.90677 19.2999 9.0954 19.1112C9.28403 18.9226 9.39 18.6668 9.39 18.4C9.39 18.1332 9.28403 17.8774 9.0954 17.6888C8.90677 17.5001 8.65093 17.3942 8.38417 17.3942H8.22833V16.0058H8.38417C8.65093 16.0058 8.90677 15.8999 9.0954 15.7112C9.28403 15.5226 9.39 15.2668 9.39 15C9.39 14.7332 9.28403 14.4774 9.0954 14.2888C8.90677 14.1001 8.65093 13.9942 8.38417 13.9942H8.22833V12.6058H8.38417C8.65093 12.6058 8.90677 12.4999 9.0954 12.3112C9.28403 12.1226 9.39 11.8668 9.39 11.6C9.39 11.3332 9.28403 11.0774 9.0954 10.8888C8.90677 10.7001 8.65093 10.5942 8.38417 10.5942H8.22833V9.9085C8.22833 9.75267 8.35583 9.62517 8.51167 9.62517H20.95C21.1058 9.62517 21.2333 9.75267 21.2333 9.9085V20.0915C21.2333 20.2473 21.1058 20.3748 20.95 20.3748H8.51167C8.35583 20.3748 8.22833 20.2473 8.22833 20.0915ZM22.9333 20.0915C22.9333 20.2473 22.8058 20.3748 22.65 20.3748H21.749C21.7802 20.287 21.8 20.1907 21.8 20.0915V9.9085C21.8 9.80934 21.7802 9.713 21.749 9.62517H22.65C22.8058 9.62517 22.9333 9.75267 22.9333 9.9085V20.0915Z" fill="#38464A"/>
<path d="M19.318 11.3179H11.3053C10.8378 11.3179 10.4553 11.7004 10.4553 12.1679V17.8346C10.4553 18.3021 10.8378 18.6846 11.3053 18.6846H19.318C19.7855 18.6846 20.168 18.3021 20.168 17.8346V12.1679C20.168 11.7004 19.7855 11.3179 19.318 11.3179ZM11.3053 11.8846H19.318C19.4738 11.8846 19.6013 12.0121 19.6013 12.1679V14.9163L18.5785 13.8934C18.5523 13.8672 18.5211 13.8463 18.4869 13.8321C18.4526 13.8179 18.4158 13.8106 18.3787 13.8106C18.3416 13.8106 18.3049 13.8179 18.2706 13.8321C18.2363 13.8463 18.2052 13.8672 18.179 13.8934L16.241 15.8314L14.303 13.8934C14.2768 13.8672 14.2456 13.8463 14.2114 13.8321C14.1771 13.8179 14.1403 13.8106 14.1032 13.8106C14.0661 13.8106 14.0294 13.8179 13.9951 13.8321C13.9608 13.8463 13.9297 13.8672 13.9035 13.8934L11.022 16.7693V12.1679C11.022 12.0121 11.1495 11.8846 11.3053 11.8846ZM11.022 17.8346V17.5711L14.099 14.4941L17.7257 18.1179H11.3053C11.1495 18.1179 11.022 17.9904 11.022 17.8346ZM19.318 18.1179H18.5275L16.6405 16.2309L18.3773 14.4941L19.6013 15.7181V17.8346C19.6013 17.9904 19.4738 18.1179 19.318 18.1179Z" fill="#38464A"/>
<path d="M16.2384 14.1517C16.7059 14.1517 17.0884 13.7692 17.0884 13.3017C17.0884 12.8342 16.7059 12.4517 16.2384 12.4517C15.7709 12.4517 15.3884 12.8342 15.3884 13.3017C15.3884 13.7692 15.7681 14.1517 16.2384 14.1517ZM16.2384 13.0184C16.3942 13.0184 16.5217 13.1459 16.5217 13.3017C16.5217 13.4575 16.3942 13.585 16.2384 13.585C16.0826 13.585 15.9551 13.4575 15.9551 13.3017C15.9551 13.1459 16.0826 13.0184 16.2384 13.0184Z" fill="#38464A"/>
</svg>
