<svg width="30" height="30" viewBox="0 0 30 30" fill="none" xmlns="http://www.w3.org/2000/svg">
<path fill-rule="evenodd" clip-rule="evenodd" d="M20 13.1579C20 13.2975 19.9445 13.4314 19.8458 13.5301C19.7471 13.6288 19.6133 13.6842 19.4737 13.6842C19.3341 13.6842 19.2002 13.6288 19.1015 13.5301C19.0028 13.4314 18.9474 13.2975 18.9474 13.1579V11.7968L17.0858 13.6584C17.6931 14.4545 17.9752 15.4516 17.8749 16.4478C17.7747 17.444 17.2996 18.365 16.5459 19.0241C15.7922 19.6832 14.8161 20.0313 13.8154 19.9978C12.8147 19.9643 11.8642 19.5518 11.1562 18.8438C10.4482 18.1358 10.0357 17.1853 10.0022 16.1846C9.96874 15.1839 10.3168 14.2078 10.9759 13.4541C11.635 12.7004 12.556 12.2253 13.5522 12.1251C14.5484 12.0248 15.5455 12.3069 16.3416 12.9142L18.2032 11.0526H16.8421C16.7025 11.0526 16.5686 10.9972 16.4699 10.8985C16.3712 10.7998 16.3158 10.6659 16.3158 10.5263C16.3158 10.3867 16.3712 10.2529 16.4699 10.1542C16.5686 10.0555 16.7025 10 16.8421 10H19.3421C19.7053 10 20 10.2947 20 10.6579V13.1579ZM13.9474 13.1579C13.1796 13.1579 12.4433 13.4629 11.9005 14.0058C11.3576 14.5486 11.0526 15.2849 11.0526 16.0526C11.0526 16.8204 11.3576 17.5567 11.9005 18.0995C12.4433 18.6424 13.1796 18.9474 13.9474 18.9474C14.7151 18.9474 15.4514 18.6424 15.9942 18.0995C16.5371 17.5567 16.8421 16.8204 16.8421 16.0526C16.8421 15.2849 16.5371 14.5486 15.9942 14.0058C15.4514 13.4629 14.7151 13.1579 13.9474 13.1579Z" fill="white"/>
</svg>
