<svg width="30" height="30" viewBox="0 0 30 30" fill="none" xmlns="http://www.w3.org/2000/svg">
<path d="M14.9925 7.5089C10.8525 7.5089 7.5 10.8649 7.5 15C7.5 19.1351 10.8525 22.4911 14.9925 22.4911C19.14 22.4911 22.5 19.1351 22.5 15C22.5 10.8649 19.14 7.5089 14.9925 7.5089ZM20.19 12.0036H17.9775C17.7428 11.0758 17.3952 10.1801 16.9425 9.33673C18.3106 9.80717 19.4634 10.7538 20.19 12.0036ZM15 9.03708C15.6225 9.93601 16.11 10.9323 16.4325 12.0036H13.5675C13.89 10.9323 14.3775 9.93601 15 9.03708ZM9.195 16.4982C9.075 16.0188 9 15.5169 9 15C9 14.4831 9.075 13.9812 9.195 13.5018H11.73C11.67 13.9962 11.625 14.4906 11.625 15C11.625 15.5094 11.67 16.0038 11.73 16.4982H9.195ZM9.81 17.9964H12.0225C12.2625 18.9328 12.6075 19.8318 13.0575 20.6633C11.688 20.1954 10.5344 19.2481 9.81 17.9964ZM12.0225 12.0036H9.81C10.5344 10.7519 11.688 9.8046 13.0575 9.33673C12.6048 10.1801 12.2572 11.0758 12.0225 12.0036ZM15 20.9629C14.3775 20.064 13.89 19.0677 13.5675 17.9964H16.4325C16.11 19.0677 15.6225 20.064 15 20.9629ZM16.755 16.4982H13.245C13.1775 16.0038 13.125 15.5094 13.125 15C13.125 14.4906 13.1775 13.9887 13.245 13.5018H16.755C16.8225 13.9887 16.875 14.4906 16.875 15C16.875 15.5094 16.8225 16.0038 16.755 16.4982ZM16.9425 20.6633C17.3925 19.8318 17.7375 18.9328 17.9775 17.9964H20.19C19.4634 19.2462 18.3106 20.1928 16.9425 20.6633ZM18.27 16.4982C18.33 16.0038 18.375 15.5094 18.375 15C18.375 14.4906 18.33 13.9962 18.27 13.5018H20.805C20.925 13.9812 21 14.4831 21 15C21 15.5169 20.925 16.0188 20.805 16.4982H18.27Z" fill="#38464A"/>
</svg>
