<svg width="25" height="25" viewBox="0 0 25 25" fill="none" xmlns="http://www.w3.org/2000/svg">
<path d="M13.9008 16.0933L11.5473 18.2015C10.0618 19.5323 7.77889 19.4068 6.44815 17.9213C5.11742 16.4358 5.24289 14.1528 6.7284 12.8221L9.0819 10.7138C9.26757 10.5475 9.28326 10.2621 9.11693 10.0764C8.9506 9.89076 8.6652 9.87507 8.47953 10.0414L6.12603 12.1497C4.26918 13.8131 4.11234 16.6668 5.77573 18.5237C7.43911 20.3805 10.2929 20.5374 12.1497 18.874L14.5032 16.7657C14.6889 16.5994 14.7046 16.314 14.5382 16.1283C14.3719 15.9426 14.0865 15.9269 13.9008 16.0933ZM9.8103 14.9095C9.97663 15.0951 10.262 15.1108 10.4477 14.9445L15.1547 10.7279C15.3404 10.5616 15.3561 10.2762 15.1897 10.0905C15.0234 9.90484 14.738 9.88916 14.5523 10.0555L9.84533 14.2721C9.65966 14.4384 9.64397 14.7238 9.8103 14.9095ZM12.8503 6.12601L10.4968 8.2343C10.3111 8.40062 10.2955 8.68602 10.4618 8.87169C10.6281 9.05737 10.9135 9.07305 11.0992 8.90672L13.4527 6.79844C14.9382 5.4677 17.2211 5.59317 18.5519 7.07868C19.8826 8.56418 19.7571 10.8471 18.2716 12.1779L15.9181 14.2862C15.7325 14.4525 15.7168 14.7379 15.8831 14.9236C16.0494 15.1092 16.3348 15.1249 16.5205 14.9586L18.874 12.8503C20.7308 11.1869 20.8877 8.33316 19.2243 6.47631C17.5609 4.61946 14.7072 4.46262 12.8503 6.12601Z" fill="#38464A"/>
</svg>
