<svg width="13" height="17" viewBox="0 0 13 17" fill="none" xmlns="http://www.w3.org/2000/svg">
<path d="M6.41156 0C8.11202 0 9.74282 0.733735 10.9452 2.03979C12.1476 3.34585 12.8231 5.11724 12.8231 6.96429C12.8231 9.90714 10.9194 13.1143 7.16123 16.62C6.95226 16.815 6.68582 16.9221 6.41033 16.9218C6.13485 16.9216 5.86859 16.814 5.65993 16.6186L5.41136 16.3843C1.81957 12.97 0 9.84143 0 6.96429C0 5.11724 0.675502 3.34585 1.8779 2.03979C3.08031 0.733735 4.71111 0 6.41156 0ZM6.41156 1.07143C4.97272 1.07143 3.59281 1.69228 2.57539 2.79741C1.55797 3.90253 0.986395 5.4014 0.986395 6.96429C0.986395 9.46572 2.66195 12.3479 6.05909 15.5764L6.30438 15.8071C6.3342 15.835 6.37223 15.8503 6.41156 15.8503C6.4509 15.8503 6.48893 15.835 6.51875 15.8071C10.0803 12.4843 11.8367 9.525 11.8367 6.96429C11.8367 6.19043 11.6964 5.42414 11.4238 4.70919C11.1511 3.99423 10.7515 3.34461 10.2477 2.79741C9.74397 2.2502 9.1459 1.81614 8.48769 1.52C7.82948 1.22385 7.12401 1.07143 6.41156 1.07143ZM6.41156 4.28572C7.06559 4.28572 7.69282 4.56792 8.15528 5.07025C8.61774 5.57258 8.87755 6.25389 8.87755 6.96429C8.87755 7.67469 8.61774 8.35599 8.15528 8.85832C7.69282 9.36065 7.06559 9.64286 6.41156 9.64286C5.75754 9.64286 5.13031 9.36065 4.66785 8.85832C4.20539 8.35599 3.94558 7.67469 3.94558 6.96429C3.94558 6.25389 4.20539 5.57258 4.66785 5.07025C5.13031 4.56792 5.75754 4.28572 6.41156 4.28572ZM6.41156 5.35714C6.01915 5.35714 5.64281 5.52647 5.36534 5.82787C5.08786 6.12926 4.93197 6.53805 4.93197 6.96429C4.93197 7.39053 5.08786 7.79931 5.36534 8.10071C5.64281 8.40211 6.01915 8.57143 6.41156 8.57143C6.80398 8.57143 7.18032 8.40211 7.45779 8.10071C7.73527 7.79931 7.89116 7.39053 7.89116 6.96429C7.89116 6.53805 7.73527 6.12926 7.45779 5.82787C7.18032 5.52647 6.80398 5.35714 6.41156 5.35714Z" fill="#38464A"/>
</svg>
