<svg width="25" height="25" viewBox="0 0 25 25" fill="none" xmlns="http://www.w3.org/2000/svg">
<path d="M18.625 7.1796H13.375C12.8938 7.1796 12.5 6.83757 12.5 6.41954C12.5 6.00151 12.8938 5.65948 13.375 5.65948H18.625C19.5875 5.65948 20.375 6.34354 20.375 7.1796V17.8204C20.375 18.6565 19.5875 19.3405 18.625 19.3405H13.375C12.8938 19.3405 12.5 18.9985 12.5 18.5805C12.5 18.1624 12.8938 17.8204 13.375 17.8204H18.625V7.1796Z" fill="#CD0404"/>
<path d="M4.93125 12.234L7.3725 10.1134C7.43335 10.0591 7.51148 10.0218 7.59688 10.0063C7.68228 9.99078 7.77106 9.99775 7.85187 10.0263C7.93268 10.0549 8.00184 10.1038 8.0505 10.1667C8.09915 10.2296 8.12509 10.3036 8.125 10.3794V11.7399H14.25C14.7312 11.7399 15.125 12.082 15.125 12.5C15.125 12.918 14.7312 13.26 14.25 13.26H8.125V14.6205C8.125 14.9626 7.6525 15.1298 7.38125 14.8866L4.94 12.766C4.765 12.6216 4.765 12.3784 4.93125 12.234Z" fill="#CD0404"/>
</svg>
