<svg width="25" height="25" viewBox="0 0 25 25" fill="none" xmlns="http://www.w3.org/2000/svg">
<path fill-rule="evenodd" clip-rule="evenodd" d="M20.5 9.55264C20.5 9.77598 20.4113 9.99017 20.2534 10.1481C20.0954 10.306 19.8812 10.3947 19.6579 10.3947C19.4346 10.3947 19.2204 10.306 19.0624 10.1481C18.9045 9.99017 18.8158 9.77598 18.8158 9.55264V7.37495L15.8373 10.3535C16.8089 11.6272 17.2603 13.2225 17.0999 14.8165C16.9395 16.4105 16.1794 17.8839 14.9734 18.9385C13.7675 19.9931 12.2058 20.55 10.6047 20.4965C9.0036 20.4429 7.48265 19.7829 6.34986 18.6501C5.21706 17.5173 4.55707 15.9964 4.50353 14.3953C4.44999 12.7942 5.0069 11.2325 6.06148 10.0266C7.11607 8.82064 8.58953 8.06051 10.1835 7.90013C11.7775 7.73974 13.3728 8.19108 14.6465 9.16274L17.625 6.18421H15.4474C15.224 6.18421 15.0098 6.09549 14.8519 5.93757C14.694 5.77964 14.6053 5.56545 14.6053 5.34211C14.6053 5.11877 14.694 4.90457 14.8519 4.74665C15.0098 4.58872 15.224 4.5 15.4474 4.5H19.4474C20.0284 4.5 20.5 4.97158 20.5 5.55263V9.55264ZM10.8158 9.55264C9.5874 9.55264 8.40934 10.0406 7.54075 10.9092C6.67216 11.7778 6.18419 12.9559 6.18419 14.1842C6.18419 15.4126 6.67216 16.5907 7.54075 17.4593C8.40934 18.3278 9.5874 18.8158 10.8158 18.8158C12.0441 18.8158 13.2222 18.3278 14.0908 17.4593C14.9594 16.5907 15.4474 15.4126 15.4474 14.1842C15.4474 12.9559 14.9594 11.7778 14.0908 10.9092C13.2222 10.0406 12.0441 9.55264 10.8158 9.55264Z" fill="#38464A"/>
</svg>
