<svg width="18" height="18" viewBox="0 0 18 18" fill="none" xmlns="http://www.w3.org/2000/svg">
<g clip-path="url(#clip0_799_13331)">
<path d="M5.59592 8.95317C5.59592 9.25 5.478 9.53467 5.26811 9.74455C5.05823 9.95444 4.77356 10.0724 4.47673 10.0724C4.1799 10.0724 3.89523 9.95444 3.68535 9.74455C3.47546 9.53467 3.35754 9.25 3.35754 8.95317C3.35754 8.65634 3.47546 8.37167 3.68535 8.16179C3.89523 7.9519 4.1799 7.83398 4.47673 7.83398C4.77356 7.83398 5.05823 7.9519 5.26811 8.16179C5.478 8.37167 5.59592 8.65634 5.59592 8.95317ZM10.0727 8.95317C10.0727 9.25 9.95475 9.53467 9.74486 9.74455C9.53497 9.95444 9.2503 10.0724 8.95348 10.0724C8.65665 10.0724 8.37198 9.95444 8.16209 9.74455C7.9522 9.53467 7.83429 9.25 7.83429 8.95317C7.83429 8.65634 7.9522 8.37167 8.16209 8.16179C8.37198 7.9519 8.65665 7.83398 8.95348 7.83398C9.2503 7.83398 9.53497 7.9519 9.74486 8.16179C9.95475 8.37167 10.0727 8.65634 10.0727 8.95317ZM13.4302 10.0724C13.727 10.0724 14.0117 9.95444 14.2216 9.74455C14.4315 9.53467 14.5494 9.25 14.5494 8.95317C14.5494 8.65634 14.4315 8.37167 14.2216 8.16179C14.0117 7.9519 13.727 7.83398 13.4302 7.83398C13.1334 7.83398 12.8487 7.9519 12.6388 8.16179C12.4289 8.37167 12.311 8.65634 12.311 8.95317C12.311 9.25 12.4289 9.53467 12.6388 9.74455C12.8487 9.95444 13.1334 10.0724 13.4302 10.0724Z" fill="#38464A"/>
<path d="M2.42304 17.6865L2.44542 17.682C4.49353 17.2757 5.74478 16.7396 6.32676 16.4453C7.18359 16.6738 8.06671 16.7889 8.95349 16.7877C13.8981 16.7877 17.907 13.2802 17.907 8.95344C17.907 4.62667 13.8981 1.11914 8.95349 1.11914C4.00893 1.11914 0 4.62667 0 8.95344C0 10.9232 0.831556 12.7251 2.2048 14.1017C2.10872 14.986 1.91196 15.8564 1.61834 16.696L1.61499 16.7083C1.53154 16.9488 1.44047 17.1865 1.3419 17.4212C1.25349 17.6294 1.42472 17.8622 1.64744 17.8264C1.90672 17.7839 2.16528 17.7373 2.42304 17.6865ZM3.31839 14.208C3.33406 14.0442 3.31341 13.8789 3.25789 13.7239C3.20237 13.569 3.11335 13.4282 2.99718 13.3116C1.81084 12.1207 1.11919 10.5964 1.11919 8.95344C1.11919 5.381 4.48122 2.23833 8.95349 2.23833C13.4258 2.23833 16.7878 5.381 16.7878 8.95344C16.7878 12.527 13.4258 15.6686 8.95349 15.6686C8.16458 15.6697 7.37892 15.5674 6.61663 15.3641C6.35024 15.2928 6.06687 15.3223 5.82089 15.447C5.38776 15.6663 4.4331 16.0849 2.87295 16.4464C3.09061 15.7157 3.23973 14.9664 3.31839 14.208Z" fill="#38464A"/>
</g>
<defs>
<clipPath id="clip0_799_13331">
<rect width="17.907" height="17.907" fill="white"/>
</clipPath>
</defs>
</svg>
