<svg width="30" height="30" viewBox="0 0 30 30" fill="none" xmlns="http://www.w3.org/2000/svg">
<path d="M15 5C13.0222 5 11.0888 5.58649 9.4443 6.6853C7.79981 7.78412 6.51809 9.3459 5.76121 11.1732C5.00433 13.0004 4.8063 15.0111 5.19215 16.9509C5.578 18.8907 6.53041 20.6725 7.92894 22.0711C9.32746 23.4696 11.1093 24.422 13.0491 24.8078C14.9889 25.1937 16.9996 24.9957 18.8268 24.2388C20.6541 23.4819 22.2159 22.2002 23.3147 20.5557C24.4135 18.9112 25 16.9778 25 15C24.9971 12.3487 23.9426 9.80688 22.0679 7.93215C20.1931 6.05741 17.6513 5.00291 15 5ZM19.087 19.742L17.918 18.133L19.313 14.069L21.206 13.454L24.171 15.728C24.06 17.1483 23.6182 18.5229 22.881 19.742H19.087ZM10.913 19.742H7.119C6.38179 18.5229 5.94002 17.1483 5.829 15.728L8.794 13.454L10.687 14.069L12.082 18.133L10.913 19.742ZM7.369 9.866L8.256 12.858L5.8 14.739C5.8482 12.9984 6.39255 11.3077 7.369 9.866ZM12.813 17.8L11.477 13.908L15 11.485L18.523 13.908L17.187 17.8H12.813ZM21.744 12.858L22.631 9.866C23.6075 11.3077 24.1518 12.9984 24.2 14.739L21.744 12.858ZM22.031 9.074L20.959 12.693L19.059 13.309L15.4 10.79V8.81L18.668 6.564C19.9666 7.13179 21.1172 7.99059 22.031 9.074ZM17.754 6.221L15 8.115L12.246 6.221C14.0391 5.65965 15.9609 5.65965 17.754 6.221ZM11.332 6.564L14.6 8.81V10.79L10.936 13.309L9.036 12.693L7.969 9.074C8.88276 7.99059 10.0334 7.13179 11.332 6.564ZM7.661 20.542H10.834L11.944 23.678C10.2405 23.0738 8.75145 21.9835 7.661 20.542ZM12.891 23.956L11.564 20.206L12.732 18.6H17.268L18.436 20.206L17.109 23.956C15.7218 24.2813 14.2782 24.2813 12.891 23.956ZM18.056 23.678L19.166 20.542H22.339C21.2486 21.9835 19.7595 23.0738 18.056 23.678Z" fill="#38464A"/>
</svg>
