<svg width="20" height="20" viewBox="0 0 20 20" fill="none" xmlns="http://www.w3.org/2000/svg">
<ellipse cx="10" cy="9.92119" rx="4.88627" ry="4.66417" fill="white"/>
<path fill-rule="evenodd" clip-rule="evenodd" d="M13.4373 6.64446C12.9969 6.20581 12.4687 5.86525 11.8874 5.64513C11.2875 5.39147 10.6432 5.25954 9.99186 5.25702C9.34098 5.26355 8.69744 5.39532 8.09637 5.64513C7.51488 5.87501 6.98696 6.22217 6.54548 6.66497C6.10478 7.08848 5.75153 7.5944 5.50575 8.15402C5.24324 8.73734 5.10959 9.3704 5.11391 10.0101C5.10823 10.643 5.24056 11.2696 5.50171 11.8462C5.74197 12.4149 6.09577 12.9286 6.54144 13.3558C6.99371 13.7851 7.51888 14.1305 8.09233 14.3756C8.69478 14.6184 9.33829 14.7431 9.98782 14.7429C10.6377 14.7469 11.282 14.622 11.8833 14.3756C12.4654 14.1357 12.9979 13.7899 13.4538 13.3558C13.9015 12.9292 14.2569 12.4153 14.4982 11.8459C14.75 11.2663 14.882 10.6417 14.8863 10.0097C14.8818 9.37149 14.7499 8.74056 14.4982 8.15402C14.2404 7.59002 13.8804 7.0783 13.4373 6.64446ZM7.29777 6.33869C7.33848 6.29799 7.37919 6.27655 7.4202 6.23615C7.66749 6.08023 7.92661 5.94392 8.19518 5.82846C8.76684 5.60204 9.37576 5.48443 9.99062 5.48168C10.41 5.48594 10.8273 5.54082 11.2336 5.64513C10.9846 5.75406 10.7567 5.90583 10.5602 6.09352C10.2898 6.05281 10.0149 6.05281 9.74452 6.09352C9.38229 6.11905 9.02536 6.19476 8.68397 6.3185C8.42638 6.39557 8.17964 6.5051 7.9497 6.64446C7.70239 6.55027 7.45048 6.46864 7.19492 6.39991C7.23307 6.38698 7.26788 6.36576 7.29684 6.33776L7.29777 6.33869ZM11.7447 7.52136L10.9082 9.72448L8.90926 10.1123C7.76699 8.97002 6.68531 8.54213 7.88942 7.03226C8.16812 6.85007 8.46993 6.70596 8.78683 6.60375C9.11007 6.49038 9.44545 6.41519 9.78616 6.37971C10.0512 6.35583 10.3181 6.3626 10.5816 6.39991L11.7447 7.52136ZM5.52316 9.84691C5.46872 10.1773 5.45505 10.5131 5.48245 10.8469C5.44405 10.7809 5.40981 10.7126 5.37991 10.6424C5.35971 10.4386 5.33889 10.2142 5.33889 10.0097C5.3364 9.36199 5.47588 8.72156 5.74751 8.13351C5.7328 8.41245 5.73955 8.69211 5.76771 8.97002C5.64629 9.24969 5.564 9.54477 5.52316 9.84691ZM5.93084 11.5805C5.86365 11.3466 5.81594 11.1076 5.78821 10.8658C5.74106 10.2985 5.8175 9.72773 6.01226 9.19281C7.23656 8.17297 7.66475 9.29473 8.66471 10.2947L8.50095 12.092C7.03209 12.5612 6.88884 12.9484 5.93022 11.5818L5.93084 11.5805ZM9.1333 14.457C8.73348 14.3777 8.34363 14.2545 7.97083 14.0897C7.65542 13.9262 7.35511 13.7351 7.07342 13.5186C7.52182 12.7433 6.42087 13.0696 8.6442 12.3561L10.4999 13.1308C10.8268 14.498 10.8886 14.3955 9.1333 14.457ZM13.8254 12.5805C13.5509 12.9734 13.213 13.3179 12.8255 13.6C11.438 14.5381 11.0717 14.1506 10.7861 13.0491L12.0912 11.7241C13.6005 11.6013 13.7841 11.1725 13.9075 12.458C13.8731 12.4936 13.8451 12.5351 13.8254 12.5805ZM12.1111 11.4171L11.1935 9.84691L12.03 7.64348L13.2133 7.70563C13.4556 7.90449 13.6746 8.13029 13.8658 8.37868C14.1079 8.68371 14.2941 9.0292 14.4158 9.39914C14.1511 11.602 14.0495 11.2549 12.1108 11.4189L12.1111 11.4171ZM14.4572 8.74473C14.3568 8.55201 14.2409 8.36775 14.1107 8.19379C13.8907 7.91244 13.6373 7.65897 13.3559 7.43901C13.2739 7.03706 13.0751 6.66824 12.7845 6.37878C12.7844 6.38147 12.7849 6.38414 12.7859 6.38663C12.787 6.38912 12.7885 6.39138 12.7904 6.39327C12.7923 6.39516 12.7946 6.39664 12.7971 6.39762C12.7996 6.3986 12.8023 6.39906 12.805 6.39898C12.8255 6.41918 12.8457 6.43968 12.8671 6.43968C13.1314 6.64912 13.377 6.88118 13.6011 7.13325C13.9967 7.60429 14.2887 8.15336 14.4581 8.74473H14.4572Z" fill="#38464A"/>
</svg>
