<svg width="30" height="30" viewBox="0 0 30 30" fill="none" xmlns="http://www.w3.org/2000/svg">
<path d="M6.58844 7.46258L6.41797 8.14473L6.75898 8.22988L9.12711 8.82207L10.2756 10.5447L12.7147 17.8619L11.2754 20.7405H11.9718C11.8879 20.9106 11.8442 21.0978 11.8443 21.2874C11.8443 21.9736 12.4081 22.5374 13.0943 22.5374C13.7805 22.5374 14.3443 21.9736 14.3443 21.2874C14.3443 21.0917 14.2983 20.9061 14.2168 20.7405H18.2218C18.1379 20.9106 18.0942 21.0978 18.0943 21.2874C18.0943 21.9736 18.6581 22.5374 19.3443 22.5374C20.0305 22.5374 20.5943 21.9736 20.5943 21.2874C20.5943 21.0917 20.5483 20.9061 20.4668 20.7405H20.9459V20.0374H12.4131L13.3116 18.2405H20.8477L23.582 10.0374H10.7824L9.56148 8.20582L6.92957 7.54789L6.58844 7.46258ZM11.0821 10.7405H14.6177V12.5373H11.6811L11.0821 10.7405ZM15.3209 10.7405H18.3677V12.5373H15.3209V10.7405ZM19.0709 10.7405H22.6065L22.0075 12.5373H19.0709V10.7405ZM11.9154 13.2405H14.6177V15.0373H12.5144L11.9154 13.2405ZM15.3209 13.2405H18.3677V15.0373H15.3209V13.2405ZM19.0709 13.2405H21.7732L21.1742 15.0373H19.0709V13.2405ZM12.7487 15.7405H14.6177V17.5373H13.3477L12.7487 15.7405ZM15.3209 15.7405H18.3677V17.5373H15.3209V15.7405ZM19.0709 15.7405H20.9398L20.3409 17.5373H19.0709V15.7405ZM13.0943 20.7405C13.4005 20.7405 13.6412 20.9811 13.6412 21.2873C13.6412 21.5936 13.4005 21.8342 13.0943 21.8342C12.788 21.8342 12.5474 21.5936 12.5474 21.2873C12.5474 20.9811 12.788 20.7405 13.0943 20.7405ZM19.3443 20.7405C19.6505 20.7405 19.8912 20.9811 19.8912 21.2873C19.8912 21.5936 19.6505 21.8342 19.3443 21.8342C19.038 21.8342 18.7974 21.5936 18.7974 21.2873C18.7974 20.9811 19.038 20.7405 19.3443 20.7405Z" fill="#38464A"/>
</svg>
