<svg width="30" height="30" viewBox="0 0 30 30" fill="none" xmlns="http://www.w3.org/2000/svg">
<g clip-path="url(#clip0_2071_4264)">
<path d="M7.5 12.3753H22.5V13.2753H21.8718L21.1146 19.9222C21.0421 20.462 20.7765 20.9573 20.367 21.3163C19.9574 21.6754 19.4317 21.8739 18.8871 21.8752H11.1129C10.5683 21.8739 10.0426 21.6753 9.63313 21.3163C9.22364 20.9572 8.95807 20.462 8.88555 19.9222L8.1285 13.2751H7.5V12.3753ZM9.7779 19.8045C9.82134 20.128 9.9805 20.4249 10.2259 20.6401C10.4714 20.8554 10.7865 20.9744 11.1129 20.9752H18.8871C19.2136 20.9744 19.5287 20.8554 19.7741 20.6402C20.0195 20.4249 20.1787 20.1281 20.2221 19.8045L20.9639 13.2751H9.03615L9.7779 19.8045ZM18.8805 9.02475H11.1195L10.53 11.7757H9.609L10.392 8.12475H19.608L20.391 11.7757H19.47L18.8805 9.02475Z" fill="#38464A"/>
<path d="M14.5097 18.8309L12.7155 17.0366L13.3518 16.4003L14.5097 17.5581L16.6482 15.4197L17.2845 16.056L14.5097 18.8309Z" fill="#38464A"/>
</g>
<defs>
<clipPath id="clip0_2071_4264">
<rect width="15" height="15" fill="white" transform="translate(7.5 7.5)"/>
</clipPath>
</defs>
</svg>
