<svg width="25" height="25" viewBox="0 0 25 25" fill="none" xmlns="http://www.w3.org/2000/svg">
<path d="M20.3174 17.7631C19.7997 17.3016 19.3464 16.7724 18.9698 16.19C18.5586 15.386 18.3122 14.5079 18.245 13.6074V10.9551C18.2485 9.54064 17.7354 8.17358 16.8021 7.11076C15.8688 6.04794 14.5795 5.36251 13.1765 5.18326V4.49064C13.1765 4.30054 13.101 4.11823 12.9666 3.9838C12.8321 3.84938 12.6498 3.77386 12.4597 3.77386C12.2696 3.77386 12.0873 3.84938 11.9529 3.9838C11.8185 4.11823 11.743 4.30054 11.743 4.49064V5.194C10.3525 5.38618 9.07878 6.07575 8.15773 7.135C7.23669 8.19424 6.73073 9.55139 6.73356 10.9551V13.6074C6.66631 14.5079 6.41988 15.386 6.00872 16.19C5.63873 16.7711 5.19272 17.3002 4.68255 17.7631C4.62528 17.8134 4.57938 17.8754 4.5479 17.9448C4.51643 18.0142 4.5001 18.0896 4.5 18.1658V18.896C4.5 19.0384 4.55657 19.175 4.65726 19.2757C4.75795 19.3764 4.89451 19.4329 5.03691 19.4329H19.9631C20.1055 19.4329 20.2421 19.3764 20.3427 19.2757C20.4434 19.175 20.5 19.0384 20.5 18.896V18.1658C20.4999 18.0896 20.4836 18.0142 20.4521 17.9448C20.4206 17.8754 20.3747 17.8134 20.3174 17.7631ZM5.61678 18.3591C6.11633 17.8765 6.55616 17.3357 6.92685 16.7484C7.44476 15.7773 7.74694 14.706 7.81275 13.6074V10.9551C7.79146 10.3258 7.89701 9.69874 8.12311 9.11114C8.34922 8.52353 8.69125 7.98744 9.12886 7.53478C9.56646 7.08212 10.0907 6.72214 10.6703 6.47629C11.2499 6.23044 11.8731 6.10375 12.5027 6.10375C13.1323 6.10375 13.7555 6.23044 14.3351 6.47629C14.9147 6.72214 15.4389 7.08212 15.8765 7.53478C16.3141 7.98744 16.6562 8.52353 16.8823 9.11114C17.1084 9.69874 17.2139 10.3258 17.1926 10.9551V13.6074C17.2584 14.706 17.5606 15.7773 18.0785 16.7484C18.4492 17.3357 18.889 17.8765 19.3886 18.3591H5.61678Z" fill="#38464A"/>
<path d="M12.5269 21.226C12.8651 21.2182 13.1897 21.091 13.4432 20.867C13.6967 20.643 13.8628 20.3365 13.9121 20.0018H11.088C11.1387 20.3456 11.3126 20.6593 11.5772 20.8844C11.8419 21.1096 12.1794 21.231 12.5269 21.226Z" fill="#38464A"/>
</svg>
