<svg width="30" height="30" viewBox="0 0 30 30" fill="none" xmlns="http://www.w3.org/2000/svg">
<path d="M24.7067 22.37C24.0638 21.7969 23.501 21.1399 23.0333 20.4167C22.5228 19.4184 22.2168 18.3282 22.1333 17.21V13.9167C22.1378 12.1604 21.5007 10.463 20.3418 9.14332C19.183 7.82365 17.5821 6.97257 15.84 6.75V5.89C15.84 5.65396 15.7462 5.42758 15.5793 5.26068C15.4124 5.09377 15.1861 5 14.95 5C14.714 5 14.4876 5.09377 14.3207 5.26068C14.1538 5.42758 14.06 5.65396 14.06 5.89V6.76333C12.3335 7.00195 10.752 7.85817 9.60837 9.1734C8.46474 10.4886 7.8365 12.1738 7.84001 13.9167V17.21C7.75652 18.3282 7.45053 19.4184 6.94001 20.4167C6.4806 21.1382 5.92681 21.7952 5.29335 22.37C5.22224 22.4325 5.16524 22.5094 5.12616 22.5956C5.08708 22.6818 5.0668 22.7753 5.06668 22.87V23.7767C5.06668 23.9535 5.13692 24.123 5.26194 24.2481C5.38697 24.3731 5.55654 24.4433 5.73335 24.4433H24.2667C24.4435 24.4433 24.6131 24.3731 24.7381 24.2481C24.8631 24.123 24.9333 23.9535 24.9333 23.7767V22.87C24.9332 22.7753 24.913 22.6818 24.8739 22.5956C24.8348 22.5094 24.7778 22.4325 24.7067 22.37ZM6.45335 23.11C7.07362 22.5108 7.61975 21.8393 8.08001 21.11C8.72309 19.9043 9.0983 18.574 9.18001 17.21V13.9167C9.15357 13.1354 9.28463 12.3567 9.56538 11.6271C9.84613 10.8975 10.2708 10.2319 10.8142 9.6698C11.3575 9.10775 12.0084 8.66078 12.7281 8.35552C13.4478 8.05025 14.2216 7.89294 15.0033 7.89294C15.7851 7.89294 16.5589 8.05025 17.2786 8.35552C17.9983 8.66078 18.6492 9.10775 19.1925 9.6698C19.7359 10.2319 20.1606 10.8975 20.4413 11.6271C20.7221 12.3567 20.8531 13.1354 20.8267 13.9167V17.21C20.9084 18.574 21.2836 19.9043 21.9267 21.11C22.3869 21.8393 22.9331 22.5108 23.5533 23.11H6.45335Z" fill="#38464A"/>
<path d="M15.0333 26.9633C15.4533 26.9537 15.8563 26.7958 16.1711 26.5176C16.4858 26.2394 16.6921 25.8589 16.7533 25.4433H13.2467C13.3097 25.8702 13.5256 26.2597 13.8542 26.5393C14.1829 26.8189 14.6019 26.9696 15.0333 26.9633Z" fill="#38464A"/>
</svg>
