<svg width="30" height="30" viewBox="0 0 30 30" fill="none" xmlns="http://www.w3.org/2000/svg">
<path d="M19.6573 16.325C20.1001 15.6305 20.3347 14.8237 20.3333 14C20.3333 11.6067 18.3933 9.66667 16 9.66667C15.1443 9.66667 14.3466 9.91467 13.675 10.3423C13.228 10.3674 12.7855 10.4455 12.357 10.575C12.6827 10.2287 13.056 9.93037 13.4656 9.689C14.2286 9.23942 15.0977 9.00157 15.9833 9H16C18.7613 9 21 11.2387 21 14C21 14.045 20.9993 14.0897 20.9983 14.1343L20.9976 14.1503C20.9738 14.9902 20.7376 15.8104 20.311 16.5343C20.0696 16.944 19.7713 17.3173 19.425 17.643C19.552 17.222 19.6316 16.7807 19.6573 16.325Z" fill="white"/>
<path fill-rule="evenodd" clip-rule="evenodd" d="M15.5907 14.5558C15.4988 14.2958 15.3285 14.0707 15.1033 13.9115C14.8781 13.7523 14.6091 13.6668 14.3334 13.6668V13.3335H13.6667V13.6668C13.3131 13.6668 12.9739 13.8073 12.7239 14.0573C12.4739 14.3074 12.3334 14.6465 12.3334 15.0001C12.3334 15.3537 12.4739 15.6929 12.7239 15.9429C12.9739 16.193 13.3131 16.3335 13.6667 16.3335V17.6668C13.3767 17.6668 13.1297 17.4818 13.0377 17.2225C13.0241 17.18 13.002 17.1408 12.973 17.107C12.9439 17.0732 12.9083 17.0456 12.8684 17.0259C12.8284 17.0061 12.7849 16.9945 12.7404 16.9918C12.6959 16.9891 12.6514 16.9954 12.6093 17.0102C12.5673 17.0251 12.5287 17.0482 12.4958 17.0783C12.4628 17.1083 12.4363 17.1446 12.4176 17.1851C12.399 17.2256 12.3886 17.2694 12.3872 17.3139C12.3858 17.3585 12.3933 17.4029 12.4094 17.4445C12.5013 17.7044 12.6716 17.9295 12.8968 18.0888C13.1219 18.248 13.3909 18.3335 13.6667 18.3335V18.6668H14.3334V18.3335C14.687 18.3335 15.0261 18.193 15.2762 17.9429C15.5262 17.6929 15.6667 17.3537 15.6667 17.0001C15.6667 16.6465 15.5262 16.3074 15.2762 16.0573C15.0261 15.8073 14.687 15.6668 14.3334 15.6668V14.3335C14.6234 14.3335 14.8704 14.5185 14.9624 14.7778C14.976 14.8202 14.998 14.8595 15.0271 14.8932C15.0562 14.927 15.0918 14.9546 15.1317 14.9744C15.1717 14.9942 15.2152 15.0058 15.2596 15.0084C15.3041 15.0111 15.3487 15.0048 15.3907 14.99C15.4328 14.9752 15.4714 14.952 15.5043 14.922C15.5372 14.892 15.5638 14.8556 15.5825 14.8151C15.6011 14.7747 15.6114 14.7309 15.6129 14.6863C15.6143 14.6418 15.6067 14.5974 15.5907 14.5558ZM13.6667 14.3335C13.4899 14.3335 13.3203 14.4037 13.1953 14.5287C13.0703 14.6537 13 14.8233 13 15.0001C13 15.1769 13.0703 15.3465 13.1953 15.4715C13.3203 15.5966 13.4899 15.6668 13.6667 15.6668V14.3335ZM14.3334 17.6668C14.5102 17.6668 14.6798 17.5966 14.8048 17.4715C14.9298 17.3465 15 17.1769 15 17.0001C15 16.8233 14.9298 16.6537 14.8048 16.5287C14.6798 16.4037 14.5102 16.3335 14.3334 16.3335V17.6668Z" fill="white"/>
<path fill-rule="evenodd" clip-rule="evenodd" d="M19 16.0001C19 18.7614 16.7613 21.0001 14 21.0001C11.2387 21.0001 9 18.7614 9 16.0001C9 13.2387 11.2387 11.0001 14 11.0001C16.7613 11.0001 19 13.2387 19 16.0001ZM18.3333 16.0001C18.3333 18.3934 16.3933 20.3334 14 20.3334C11.6067 20.3334 9.66667 18.3934 9.66667 16.0001C9.66667 13.6067 11.6067 11.6667 14 11.6667C16.3933 11.6667 18.3333 13.6067 18.3333 16.0001Z" fill="white"/>
</svg>
