<svg width="30" height="30" viewBox="0 0 30 30" fill="none" xmlns="http://www.w3.org/2000/svg">
<path d="M21.6949 16.9047C22.3315 15.9064 22.6687 14.7465 22.6667 13.5625C22.6667 10.1221 19.8779 7.33333 16.4375 7.33333C15.2075 7.33333 14.0608 7.68983 13.0953 8.3046C12.4527 8.34065 11.8167 8.45292 11.2007 8.63906C11.669 8.14123 12.2056 7.71241 12.7944 7.36544C13.8912 6.71917 15.1405 6.37726 16.4135 6.375H16.4375C20.4069 6.375 23.625 9.59308 23.625 13.5625C23.625 13.6272 23.624 13.6914 23.6226 13.7556L23.6216 13.7786C23.5874 14.986 23.2478 16.165 22.6346 17.2056C22.2876 17.7945 21.8588 18.331 21.3609 18.7993C21.5435 18.1941 21.658 17.5597 21.6949 16.9047Z" fill="#38464A"/>
<path fill-rule="evenodd" clip-rule="evenodd" d="M15.8491 14.3613C15.7169 13.9875 15.4721 13.664 15.1484 13.4351C14.8247 13.2062 14.4381 13.0833 14.0417 13.0833V12.6042H13.0833V13.0833C12.575 13.0833 12.0875 13.2853 11.728 13.6447C11.3686 14.0042 11.1667 14.4917 11.1667 15C11.1667 15.5083 11.3686 15.9958 11.728 16.3553C12.0875 16.7147 12.575 16.9167 13.0833 16.9167V18.8333C12.6664 18.8333 12.3114 18.5674 12.1791 18.1946C12.1595 18.1336 12.1279 18.0772 12.086 18.0286C12.0442 17.9801 11.9931 17.9404 11.9357 17.912C11.8783 17.8835 11.8158 17.8669 11.7518 17.8631C11.6879 17.8592 11.6238 17.8682 11.5634 17.8896C11.503 17.9109 11.4474 17.9441 11.4001 17.9873C11.3528 18.0305 11.3146 18.0827 11.2878 18.1409C11.261 18.1991 11.2461 18.2621 11.2441 18.3261C11.242 18.3902 11.2529 18.454 11.2759 18.5137C11.4081 18.8875 11.6529 19.211 11.9765 19.4399C12.3002 19.6688 12.6869 19.7917 13.0833 19.7917V20.2708H14.0417V19.7917C14.55 19.7917 15.0375 19.5897 15.3969 19.2303C15.7564 18.8708 15.9583 18.3833 15.9583 17.875C15.9583 17.3667 15.7564 16.8792 15.3969 16.5197C15.0375 16.1603 14.55 15.9583 14.0417 15.9583V14.0417C14.4585 14.0417 14.8136 14.3076 14.9458 14.6804C14.9655 14.7414 14.9971 14.7978 15.0389 14.8464C15.0807 14.8949 15.1319 14.9346 15.1893 14.963C15.2467 14.9915 15.3092 15.0081 15.3732 15.012C15.4371 15.0158 15.5012 15.0068 15.5616 14.9854C15.622 14.9641 15.6775 14.9309 15.7249 14.8877C15.7722 14.8445 15.8104 14.7923 15.8372 14.7341C15.864 14.6759 15.8789 14.6129 15.8809 14.5489C15.8829 14.4848 15.8721 14.4211 15.8491 14.3613ZM13.0833 14.0417C12.8292 14.0417 12.5854 14.1426 12.4057 14.3224C12.226 14.5021 12.125 14.7458 12.125 15C12.125 15.2542 12.226 15.4979 12.4057 15.6776C12.5854 15.8574 12.8292 15.9583 13.0833 15.9583V14.0417ZM14.0417 18.8333C14.2958 18.8333 14.5396 18.7324 14.7193 18.5526C14.899 18.3729 15 18.1292 15 17.875C15 17.6208 14.899 17.3771 14.7193 17.1974C14.5396 17.0176 14.2958 16.9167 14.0417 16.9167V18.8333Z" fill="#38464A"/>
<path fill-rule="evenodd" clip-rule="evenodd" d="M20.75 16.4375C20.75 20.4069 17.5319 23.625 13.5625 23.625C9.59308 23.625 6.375 20.4069 6.375 16.4375C6.375 12.4681 9.59308 9.25 13.5625 9.25C17.5319 9.25 20.75 12.4681 20.75 16.4375ZM19.7917 16.4375C19.7917 19.8779 17.0029 22.6667 13.5625 22.6667C10.1221 22.6667 7.33333 19.8779 7.33333 16.4375C7.33333 12.9971 10.1221 10.2083 13.5625 10.2083C17.0029 10.2083 19.7917 12.9971 19.7917 16.4375Z" fill="#38464A"/>
</svg>
