<svg width="30" height="30" viewBox="0 0 30 30" fill="none" xmlns="http://www.w3.org/2000/svg">
<path d="M8.95833 15C8.95833 15.6409 8.70372 16.2556 8.25051 16.7088C7.7973 17.1621 7.18261 17.4167 6.54167 17.4167C5.90073 17.4167 5.28604 17.1621 4.83283 16.7088C4.37961 16.2556 4.125 15.6409 4.125 15C4.125 14.3591 4.37961 13.7444 4.83283 13.2912C5.28604 12.8379 5.90073 12.5833 6.54167 12.5833C7.18261 12.5833 7.7973 12.8379 8.25051 13.2912C8.70372 13.7444 8.95833 14.3591 8.95833 15ZM17.4167 15C17.4167 15.6409 17.1621 16.2556 16.7088 16.7088C16.2556 17.1621 15.6409 17.4167 15 17.4167C14.3591 17.4167 13.7444 17.1621 13.2912 16.7088C12.8379 16.2556 12.5833 15.6409 12.5833 15C12.5833 14.3591 12.8379 13.7444 13.2912 13.2912C13.7444 12.8379 14.3591 12.5833 15 12.5833C15.6409 12.5833 16.2556 12.8379 16.7088 13.2912C17.1621 13.7444 17.4167 14.3591 17.4167 15ZM25.875 15C25.875 15.6409 25.6204 16.2556 25.1672 16.7088C24.714 17.1621 24.0993 17.4167 23.4583 17.4167C22.8174 17.4167 22.2027 17.1621 21.7495 16.7088C21.2963 16.2556 21.0417 15.6409 21.0417 15C21.0417 14.3591 21.2963 13.7444 21.7495 13.2912C22.2027 12.8379 22.8174 12.5833 23.4583 12.5833C24.0993 12.5833 24.714 12.8379 25.1672 13.2912C25.6204 13.7444 25.875 14.3591 25.875 15Z" fill="#38464A"/>
</svg>
