<svg width="25" height="25" viewBox="0 0 25 25" fill="none" xmlns="http://www.w3.org/2000/svg">
<path d="M10.4167 12.5C10.4167 13.0525 10.1972 13.5824 9.80647 13.9731C9.41577 14.3638 8.88587 14.5833 8.33333 14.5833C7.7808 14.5833 7.2509 14.3638 6.86019 13.9731C6.46949 13.5824 6.25 13.0525 6.25 12.5C6.25 11.9475 6.46949 11.4176 6.86019 11.0269C7.2509 10.6361 7.7808 10.4167 8.33333 10.4167C8.88587 10.4167 9.41577 10.6361 9.80647 11.0269C10.1972 11.4176 10.4167 11.9475 10.4167 12.5Z" stroke="#38464A" stroke-width="1.5"/>
<path d="M14.5833 7.91666L10.4167 10.8333M14.5833 17.0833L10.4167 14.1667" stroke="#38464A" stroke-width="1.5" stroke-linecap="round"/>
<path d="M18.75 17.9167C18.75 18.4692 18.5305 18.9991 18.1398 19.3898C17.7491 19.7805 17.2192 20 16.6667 20C16.1141 20 15.5842 19.7805 15.1935 19.3898C14.8028 18.9991 14.5833 18.4692 14.5833 17.9167C14.5833 17.3641 14.8028 16.8342 15.1935 16.4435C15.5842 16.0528 16.1141 15.8333 16.6667 15.8333C17.2192 15.8333 17.7491 16.0528 18.1398 16.4435C18.5305 16.8342 18.75 17.3641 18.75 17.9167ZM18.75 7.08333C18.75 7.63587 18.5305 8.16577 18.1398 8.55647C17.7491 8.94717 17.2192 9.16667 16.6667 9.16667C16.1141 9.16667 15.5842 8.94717 15.1935 8.55647C14.8028 8.16577 14.5833 7.63587 14.5833 7.08333C14.5833 6.5308 14.8028 6.00089 15.1935 5.61019C15.5842 5.21949 16.1141 5 16.6667 5C17.2192 5 17.7491 5.21949 18.1398 5.61019C18.5305 6.00089 18.75 6.5308 18.75 7.08333Z" stroke="#38464A" stroke-width="1.5"/>
</svg>
