<svg width="30" height="30" viewBox="0 0 30 30" fill="none" xmlns="http://www.w3.org/2000/svg">
<path fill-rule="evenodd" clip-rule="evenodd" d="M15 9.09375C10.9922 9.09375 7.51509 9.82359 5.78794 10.8648C4.90453 11.3972 4.45312 12.0384 4.45312 12.6797C4.45312 13.3209 4.90453 13.9622 5.78794 14.4946C7.51509 15.5358 10.9922 16.2656 15 16.2656C19.0078 16.2656 22.4849 15.5358 24.2121 14.4946C25.0955 13.9622 25.5469 13.3209 25.5469 12.6797C25.5469 12.0384 25.0955 11.3972 24.2121 10.8648C22.4849 9.82359 19.0078 9.09375 15 9.09375ZM15 9.9375C18.2847 9.9375 21.1999 10.4303 23.0047 11.1998C23.5658 11.4385 24.0138 11.7009 24.3201 11.9878C24.5555 12.2089 24.7031 12.4342 24.7031 12.6797C24.7031 12.9252 24.5555 13.1505 24.3201 13.3716C24.0138 13.6584 23.5658 13.9208 23.0047 14.1596C21.1999 14.9291 18.2847 15.4219 15 15.4219C11.7153 15.4219 8.80013 14.9291 6.99534 14.1596C6.43425 13.9208 5.98622 13.6584 5.67994 13.3716C5.44453 13.1505 5.29688 12.9252 5.29688 12.6797C5.29688 12.4342 5.44453 12.2089 5.67994 11.9878C5.98622 11.7009 6.43425 11.4385 6.99534 11.1998C8.80013 10.4303 11.7153 9.9375 15 9.9375Z" fill="#38464A"/>
<path fill-rule="evenodd" clip-rule="evenodd" d="M9.09373 15.1317C9.09373 15.0169 9.17304 14.9182 9.28357 14.8144C9.46329 14.6457 9.72907 14.4929 10.059 14.352C11.1736 13.8778 12.9724 13.5758 15 13.5758C17.0275 13.5758 18.8264 13.8778 19.941 14.352C20.2709 14.4929 20.5367 14.6457 20.7164 14.8144C20.8269 14.9182 20.9062 15.0169 20.9062 15.1317C20.9062 15.3645 21.0952 15.5535 21.3281 15.5535C21.561 15.5535 21.75 15.3645 21.75 15.1317C21.75 14.687 21.4521 14.2314 20.8387 13.8618C19.7435 13.202 17.5414 12.732 15 12.732C12.4586 12.732 10.2564 13.202 9.16123 13.8618C8.54782 14.2314 8.24998 14.687 8.24998 15.1317C8.24998 15.3645 8.43898 15.5535 8.67185 15.5535C8.90473 15.5535 9.09373 15.3645 9.09373 15.1317ZM24.7132 12.5894L22.182 24.153C22.1322 24.3808 22.2765 24.6053 22.5034 24.6551C22.7313 24.7048 22.9557 24.5606 23.0055 24.3336L25.5367 12.77C25.5865 12.5422 25.4422 12.3178 25.2153 12.268C24.9874 12.2182 24.763 12.3625 24.7132 12.5894ZM4.46323 12.77L6.99448 24.3336C7.04426 24.5606 7.26869 24.7048 7.49651 24.6551C7.72348 24.6053 7.86776 24.3808 7.81798 24.153L5.28673 12.5894C5.23694 12.3625 5.01251 12.2182 4.78469 12.268C4.55773 12.3178 4.41344 12.5422 4.46323 12.77Z" fill="#38464A"/>
<path fill-rule="evenodd" clip-rule="evenodd" d="M23.3244 21.3839C24.2036 21.6277 24.8761 21.9036 25.271 22.2166C25.4304 22.3424 25.5469 22.4554 25.5469 22.5938C25.5469 22.701 25.4684 22.7938 25.3621 22.8933C25.1807 23.0629 24.9124 23.2199 24.5723 23.3709C22.7785 24.1691 19.1622 24.7032 15 24.7032C10.8378 24.7032 7.22147 24.1691 5.42766 23.3709C5.08763 23.2199 4.81931 23.0629 4.63791 22.8933C4.53159 22.7938 4.45312 22.701 4.45312 22.5938C4.45312 22.4504 4.57716 22.3339 4.74675 22.2023C5.16272 21.8817 5.87063 21.599 6.79369 21.3518C7.01813 21.291 7.15144 21.0599 7.09153 20.8346C7.03078 20.6101 6.79959 20.476 6.57516 20.5367C5.51372 20.8211 4.70878 21.1662 4.23122 21.5349C3.80512 21.864 3.60938 22.2327 3.60938 22.5938C3.60938 22.8537 3.70725 23.1119 3.91566 23.3574C4.14937 23.6316 4.54341 23.9008 5.08509 24.1421C6.94388 24.969 10.6867 25.5469 15 25.5469C19.3132 25.5469 23.0561 24.969 24.9149 24.1421C25.4566 23.9008 25.8506 23.6316 26.0843 23.3574C26.2927 23.1119 26.3906 22.8537 26.3906 22.5938C26.3906 22.2394 26.2033 21.8783 25.7949 21.5551C25.3385 21.1932 24.5681 20.8531 23.5506 20.5705C23.3261 20.508 23.0933 20.6397 23.0308 20.8641C22.9684 21.0885 23.1 21.3214 23.3244 21.3839Z" fill="#38464A"/>
<path fill-rule="evenodd" clip-rule="evenodd" d="M19.2188 24.6356V20.4844C19.2188 19.7858 18.6518 19.2188 17.9531 19.2188C16.4918 19.2188 13.5082 19.2188 12.0469 19.2188C11.3482 19.2188 10.7812 19.7858 10.7812 20.4844V24.6356C10.7812 24.8685 10.9703 25.0575 11.2031 25.0575C11.436 25.0575 11.625 24.8685 11.625 24.6356V20.4844C11.625 20.2515 11.814 20.0625 12.0469 20.0625H17.9531C18.186 20.0625 18.375 20.2515 18.375 20.4844V24.6356C18.375 24.8685 18.564 25.0575 18.7969 25.0575C19.0297 25.0575 19.2188 24.8685 19.2188 24.6356Z" fill="#38464A"/>
<path fill-rule="evenodd" clip-rule="evenodd" d="M15.4219 24.6356V19.6406C15.4219 19.4078 15.2329 19.2188 15 19.2188C14.7671 19.2188 14.5781 19.4078 14.5781 19.6406V24.6356C14.5781 24.8685 14.7671 25.0575 15 25.0575C15.2329 25.0575 15.4219 24.8685 15.4219 24.6356ZM15.4219 13.1547V9.51562C15.4219 9.28275 15.2329 9.09375 15 9.09375C14.7671 9.09375 14.5781 9.28275 14.5781 9.51562V13.1539C14.5781 13.3868 14.7671 13.5758 15 13.5758C15.2329 13.5758 15.4219 13.3867 15.4219 13.1547Z" fill="#38464A"/>
<path fill-rule="evenodd" clip-rule="evenodd" d="M15.4219 9.51571V5.03371C15.4219 4.80084 15.2329 4.61099 15 4.61099C14.7671 4.61099 14.5781 4.80084 14.5781 5.03287V9.51571C14.5781 9.74859 14.7671 9.93759 15 9.93759C15.2329 9.93759 15.4219 9.74859 15.4219 9.51571ZM22.5938 10.5704V6.0884C22.5938 5.85552 22.4047 5.66652 22.1719 5.66652C21.939 5.66652 21.75 5.85552 21.75 6.08755V10.5704C21.75 10.8033 21.939 10.9923 22.1719 10.9923C22.4047 10.9923 22.5938 10.8033 22.5938 10.5704ZM8.25 10.5704V6.0884C8.25 5.85552 8.061 5.66652 7.82812 5.66652C7.59525 5.66652 7.40625 5.85552 7.40625 6.08755V10.5704C7.40625 10.8033 7.59525 10.9923 7.82812 10.9923C8.061 10.9923 8.25 10.8033 8.25 10.5704Z" fill="#38464A"/>
<path fill-rule="evenodd" clip-rule="evenodd" d="M19.5023 13.9705L22.8773 10.8992C23.0502 10.7431 23.0629 10.4757 22.906 10.3035C22.749 10.1314 22.4824 10.1188 22.3103 10.2757L18.9353 13.3461C18.7623 13.503 18.7496 13.7697 18.9066 13.9418C19.0635 14.1148 19.3301 14.1266 19.5023 13.9705ZM11.0648 13.3461L7.68977 10.2757C7.51764 10.1188 7.25102 10.1314 7.09408 10.3035C6.93714 10.4757 6.9498 10.7431 7.12277 10.8992L10.4978 13.9705C10.6699 14.1266 10.9365 14.1148 11.0935 13.9418C11.2504 13.7697 11.2377 13.503 11.0648 13.3461ZM15.1021 4.46563C14.9764 4.43441 14.8431 4.46225 14.7401 4.54241C14.638 4.62257 14.5781 4.74491 14.5781 4.87485V7.4061C14.5781 7.55207 14.6541 7.68791 14.7781 7.76469C14.903 7.84147 15.0582 7.84907 15.189 7.78325L18.564 6.09575C18.7218 6.01728 18.8138 5.84769 18.7944 5.67219C18.775 5.49669 18.6484 5.35241 18.4771 5.30938L15.1021 4.46563ZM15.4219 5.41485L17.1659 5.85107L15.4219 6.7235V5.41485ZM22.274 5.52032C22.1483 5.4891 22.015 5.51694 21.912 5.5971C21.8099 5.67725 21.75 5.7996 21.75 5.92953V8.46078C21.75 8.60675 21.826 8.7426 21.95 8.81938C22.0749 8.89616 22.2301 8.90375 22.3609 8.83794L25.7359 7.15044C25.8937 7.07197 25.9856 6.90238 25.9662 6.72688C25.9468 6.55138 25.8203 6.4071 25.649 6.36407L22.274 5.52032ZM22.5938 6.46953L24.3378 6.90575L22.5938 7.77819V6.46953ZM7.93023 5.52032C7.80452 5.4891 7.6712 5.51694 7.56827 5.5971C7.46617 5.67725 7.40627 5.7996 7.40627 5.92953V8.46078C7.40627 8.60675 7.4822 8.7426 7.60624 8.81938C7.73111 8.89616 7.88636 8.90375 8.01714 8.83794L11.3921 7.15044C11.5499 7.07197 11.6419 6.90238 11.6225 6.72688C11.6031 6.55138 11.4765 6.4071 11.3052 6.36407L7.93023 5.52032ZM8.25002 6.46953L9.99405 6.90575L8.25002 7.77819V6.46953Z" fill="#38464A"/>
</svg>
