<svg width="12" height="11" viewBox="0 0 12 11" fill="none" xmlns="http://www.w3.org/2000/svg">
<g clip-path="url(#clip0_623_6582)">
<path d="M2.40469 10.6154L3.21094 6.8771L0.140625 4.30757L4.26797 3.8564L5.98359 0.384521L7.72734 3.84351L11.8594 4.26675L8.81016 6.85776L9.64688 10.5896L6.01875 8.7312L2.40469 10.6154Z" fill="#FFD759"/>
<path d="M6 5.5L0.140625 4.30762L3.21094 6.87715L6 5.5Z" fill="#FABD3B"/>
<path d="M5.99998 5.5L2.40466 10.6154L6.01873 8.73125L9.64685 10.5896L5.99998 5.5Z" fill="#FABD3B"/>
<path d="M6 5.50005L11.8594 4.26685L8.81016 6.85786L6 5.50005Z" fill="#FABD3B"/>
<path d="M5.98358 0.384521L5.99999 5.49995L7.72733 3.84351L5.98358 0.384521Z" fill="#FABD3B"/>
</g>
<defs>
<clipPath id="clip0_623_6582">
<rect width="12" height="11" fill="white"/>
</clipPath>
</defs>
</svg>
