<svg width="30" height="30" viewBox="0 0 30 30" fill="none" xmlns="http://www.w3.org/2000/svg">
<path d="M25.9963 13.1699C25.9928 13.1195 25.9808 13.07 25.9607 13.0237L22.0473 5.19675C22.0177 5.13766 21.9724 5.08796 21.9162 5.05321C21.86 5.01846 21.7953 5.00004 21.7292 5.00001H9.27731C9.2109 4.99964 9.14571 5.01788 9.08912 5.05265C9.03254 5.08742 8.98681 5.13733 8.95712 5.19675L5.04367 13.0237C5.00208 13.2832 4.99014 13.5466 5.00809 13.8088C5.00876 14.3045 5.18956 14.7829 5.51682 15.1552C5.84407 15.5274 6.29547 15.768 6.78693 15.8321V23.2901H6.35859C6.0125 23.3078 5.68644 23.4578 5.44776 23.7091C5.20908 23.9603 5.076 24.2937 5.076 24.6402C5.076 24.9868 5.20908 25.3201 5.44776 25.5713C5.68644 25.8226 6.0125 25.9726 6.35859 25.9903H24.6152C26.3941 25.9441 26.3962 23.3367 24.6152 23.2901H24.221V15.8317C24.7124 15.7675 25.1636 15.5269 25.4908 15.1548C25.8181 14.7827 25.999 14.3044 25.9999 13.8088C25.9945 13.7921 26.0052 13.1866 25.9963 13.1699ZM25.0674 12.8269H22.5126L19.7092 5.71154H21.5097L25.0674 12.8269ZM18.5213 13.8092C18.3982 15.7428 15.6594 15.4742 15.8608 13.5385H18.5213V13.8092ZM15.1493 13.8092C15.0244 15.7442 12.285 15.4742 12.4867 13.5385H15.1479L15.1493 13.8092ZM14.0282 5.71154L11.8474 12.8269H9.2581L12.0427 5.71154H14.0282ZM15.1496 5.71154V12.8269H12.5895L14.7704 5.71154H15.1496ZM16.2169 5.71154L18.3978 12.8269H15.8594V5.71154H16.2169ZM18.9443 5.71154L21.7474 12.8269H19.1417L16.9609 5.71154H18.9443ZM9.09374 13.8088V13.5385H11.7538C11.9548 15.4756 9.21328 15.7414 9.09374 13.8088ZM19.2314 13.5385H21.8907C21.9265 13.7334 21.919 13.9339 21.8687 14.1256C21.8185 14.3173 21.7266 14.4957 21.5998 14.648C21.4729 14.8003 21.3141 14.9228 21.1346 15.0069C20.9551 15.091 20.7593 15.1346 20.5611 15.1346C20.3628 15.1346 20.167 15.091 19.9875 15.0069C19.808 14.9228 19.6492 14.8003 19.5223 14.648C19.3955 14.4957 19.3036 14.3173 19.2534 14.1256C19.2031 13.9339 19.1956 13.7334 19.2314 13.5385ZM9.49754 5.71154H11.2782L8.49391 12.8269H5.93985L9.49754 5.71154ZM5.71998 13.8088V13.5385H8.38078C8.58499 15.4667 5.84379 15.7471 5.71998 13.8088ZM25.2538 24.6402C25.2538 24.81 25.1863 24.9729 25.0663 25.093C24.9462 25.2131 24.7833 25.2806 24.6134 25.2806H6.35859C6.27072 25.2872 6.18244 25.2755 6.09927 25.2464C6.01611 25.2173 5.93985 25.1713 5.87526 25.1114C5.81068 25.0514 5.75916 24.9788 5.72392 24.898C5.68869 24.8173 5.67051 24.7301 5.67051 24.642C5.67051 24.5539 5.68869 24.4667 5.72392 24.3859C5.75916 24.3052 5.81068 24.2325 5.87526 24.1726C5.93985 24.1127 6.01611 24.0667 6.09927 24.0376C6.18244 24.0085 6.27072 23.9968 6.35859 24.0034H9.27874C12.3117 24.0034 21.4603 24.0034 24.6152 24.0034C24.7841 24.0038 24.946 24.071 25.0656 24.1903C25.1852 24.3096 25.2529 24.4713 25.2538 24.6402ZM12.8375 23.2883H9.63557V16.7973H12.8375V23.2883ZM13.549 23.2883V16.4415C13.549 16.3472 13.5115 16.2567 13.4448 16.19C13.3781 16.1232 13.2876 16.0858 13.1933 16.0858H9.27981C9.18545 16.0858 9.09496 16.1232 9.02824 16.19C8.96152 16.2567 8.92404 16.3472 8.92404 16.4415V23.2901H7.50096V15.8011C7.99412 15.6838 8.42759 15.3908 8.72018 14.9768C8.91484 15.2476 9.17175 15.4675 9.46924 15.6182C9.76673 15.7688 10.0961 15.8458 10.4295 15.8424C10.763 15.8391 11.0907 15.7557 11.3852 15.5992C11.6796 15.4426 11.9321 15.2176 12.1213 14.943C12.3094 15.2174 12.5611 15.4421 12.8551 15.5979C13.149 15.7536 13.4763 15.8358 13.8089 15.8373C14.1415 15.8389 14.4696 15.7597 14.7649 15.6067C15.0603 15.4537 15.3141 15.2313 15.5047 14.9587C15.6943 15.23 15.9465 15.4516 16.24 15.6046C16.5336 15.7576 16.8597 15.8375 17.1907 15.8375C17.5217 15.8375 17.8478 15.7576 18.1413 15.6046C18.4348 15.4516 18.6871 15.23 18.8767 14.9587C19.0672 15.2314 19.3211 15.4538 19.6165 15.6069C19.912 15.76 20.2401 15.8391 20.5728 15.8375C20.9055 15.8359 21.2329 15.7536 21.5268 15.5977C21.8207 15.4418 22.0725 15.2169 22.2604 14.9423C22.5507 15.3673 22.9874 15.6706 23.4871 15.794C23.5554 15.7663 23.4871 23.2826 23.5106 23.2901L13.549 23.2883ZM25.2894 13.8071C25.2867 13.9931 25.2454 14.1765 25.168 14.3457C25.0907 14.5149 24.979 14.6662 24.84 14.7899C24.7011 14.9137 24.5379 15.0071 24.3609 15.0645C24.1839 15.1218 23.997 15.1416 23.8119 15.1228C23.6268 15.104 23.4476 15.0469 23.2858 14.9552C23.1239 14.8634 22.9829 14.739 22.8717 14.5899C22.7605 14.4407 22.6815 14.2701 22.6398 14.0887C22.5981 13.9074 22.5945 13.7194 22.6293 13.5367H25.2894V13.8071ZM21.7317 16.084H14.204C14.1096 16.084 14.0192 16.1215 13.9524 16.1882C13.8857 16.2549 13.8482 16.3454 13.8482 16.4397V21.7211C13.8482 21.8155 13.8857 21.906 13.9524 21.9727C14.0192 22.0394 14.1096 22.0769 14.204 22.0769H21.7296C21.8239 22.0769 21.9144 22.0394 21.9811 21.9727C22.0479 21.906 22.0853 21.8155 22.0853 21.7211V16.4426C22.0853 16.3482 22.0479 16.2577 21.9811 16.191C21.9144 16.1243 21.8239 16.0868 21.7296 16.0868L21.7317 16.084ZM21.3759 21.3625H14.5598V16.7984H21.3738L21.3759 21.3625Z" fill="#38464A"/>
</svg>
