<svg width="15" height="15" viewBox="0 0 15 15" fill="none" xmlns="http://www.w3.org/2000/svg">
<path d="M7.5 11.25C9.57107 11.25 11.25 9.57107 11.25 7.5C11.25 5.42893 9.57107 3.75 7.5 3.75C5.42893 3.75 3.75 5.42893 3.75 7.5C3.75 9.57107 5.42893 11.25 7.5 11.25Z" fill="url(#paint0_linear_4264_1600)"/>
<path d="M10.0992 4.8001L3.80158 8.11417C3.76658 7.91137 3.74933 7.7059 3.75002 7.5001C3.74954 6.76446 3.96558 6.04494 4.37121 5.43123C4.77683 4.81752 5.35411 4.33677 6.03109 4.04888C6.70806 3.761 7.45479 3.67872 8.17821 3.81231C8.90162 3.94589 9.56972 4.28943 10.0992 4.8001Z" fill="url(#paint1_linear_4264_1600)"/>
<path d="M7.5 2.9632C7.43784 2.9632 7.37823 2.93851 7.33427 2.89456C7.29032 2.8506 7.26562 2.79099 7.26562 2.72883V0.46875C7.26562 0.40659 7.29032 0.346976 7.33427 0.303022C7.37823 0.259068 7.43784 0.234375 7.5 0.234375C7.56216 0.234375 7.62177 0.259068 7.66573 0.303022C7.70968 0.346976 7.73438 0.40659 7.73438 0.46875V2.72883C7.73438 2.79099 7.70968 2.8506 7.66573 2.89456C7.62177 2.93851 7.56216 2.9632 7.5 2.9632Z" fill="url(#paint2_linear_4264_1600)"/>
<path d="M5.11451 3.60254C5.07333 3.60258 5.03286 3.59177 4.99719 3.57119C4.96152 3.55062 4.93189 3.52101 4.9113 3.48535L4.26021 2.3573C4.24458 2.33064 4.23438 2.30114 4.23019 2.27052C4.226 2.2399 4.22791 2.20875 4.23581 2.17886C4.24371 2.14898 4.25745 2.12096 4.27622 2.0964C4.295 2.07185 4.31844 2.05125 4.34521 2.0358C4.37198 2.02034 4.40154 2.01033 4.43219 2.00635C4.46284 2.00237 4.49398 2.00448 4.52381 2.01258C4.55364 2.02068 4.58157 2.0346 4.606 2.05354C4.63043 2.07248 4.65087 2.09606 4.66615 2.12293L5.31748 3.25098C5.33805 3.2866 5.34888 3.32702 5.34888 3.36816C5.34888 3.4093 5.33805 3.44972 5.31748 3.48535C5.29691 3.52098 5.26732 3.55056 5.23169 3.57114C5.19606 3.59171 5.15565 3.60254 5.11451 3.60254Z" fill="url(#paint3_linear_4264_1600)"/>
<path d="M3.36801 5.34865C3.32686 5.34868 3.28643 5.33785 3.25082 5.31724L1.29355 4.18756C1.26688 4.17217 1.24351 4.15168 1.22476 4.12725C1.20601 4.10283 1.19225 4.07495 1.18427 4.04521C1.1763 4.01547 1.17426 3.98445 1.17827 3.95392C1.18228 3.92339 1.19227 3.89395 1.20765 3.86728C1.22304 3.84061 1.24354 3.81724 1.26796 3.79849C1.29238 3.77974 1.32026 3.76598 1.35 3.758C1.37974 3.75003 1.41076 3.74799 1.44129 3.752C1.47182 3.75601 1.50126 3.766 1.52793 3.78139L3.48519 4.91131C3.52989 4.93712 3.56482 4.97696 3.58456 5.02464C3.60429 5.07233 3.60774 5.1252 3.59435 5.17505C3.58097 5.2249 3.55151 5.26893 3.51054 5.30032C3.46957 5.33171 3.41962 5.3487 3.36801 5.34865Z" fill="url(#paint4_linear_4264_1600)"/>
<path d="M2.72894 7.73438H1.42651C1.36435 7.73438 1.30474 7.70968 1.26079 7.66573C1.21683 7.62177 1.19214 7.56216 1.19214 7.5C1.19214 7.43784 1.21683 7.37823 1.26079 7.33427C1.30474 7.29032 1.36435 7.26562 1.42651 7.26562H2.72894C2.7911 7.26562 2.85071 7.29032 2.89466 7.33427C2.93862 7.37823 2.96331 7.43784 2.96331 7.5C2.96331 7.56216 2.93862 7.62177 2.89466 7.66573C2.85071 7.70968 2.7911 7.73438 2.72894 7.73438Z" fill="url(#paint5_linear_4264_1600)"/>
<path d="M1.41087 11.2498C1.35926 11.2498 1.30907 11.2328 1.2681 11.2014C1.22713 11.17 1.19767 11.126 1.18429 11.0762C1.1709 11.0263 1.17435 10.9734 1.19409 10.9258C1.21382 10.8781 1.24875 10.8382 1.29345 10.8124L3.25071 9.68226C3.27738 9.66688 3.30682 9.65689 3.33735 9.65288C3.36788 9.64887 3.3989 9.65091 3.42864 9.65888C3.45838 9.66686 3.48626 9.68062 3.51068 9.69937C3.53511 9.71812 3.5556 9.74149 3.57099 9.76816C3.58637 9.79483 3.59636 9.82427 3.60037 9.8548C3.60438 9.88533 3.60234 9.91635 3.59437 9.94609C3.58639 9.97583 3.57263 10.0037 3.55388 10.0281C3.53513 10.0526 3.51176 10.073 3.48509 10.0884L1.52782 11.2184C1.49227 11.2389 1.45194 11.2498 1.41087 11.2498Z" fill="url(#paint6_linear_4264_1600)"/>
<path d="M4.46289 12.9941C4.42177 12.9941 4.38139 12.9832 4.34579 12.9626C4.31019 12.942 4.28064 12.9125 4.2601 12.8768C4.23956 12.8412 4.22875 12.8008 4.22876 12.7597C4.22877 12.7186 4.2396 12.6782 4.26016 12.6426L4.91125 11.5147C4.92664 11.4881 4.94713 11.4647 4.97156 11.4459C4.99598 11.4272 5.02386 11.4134 5.0536 11.4055C5.08334 11.3975 5.11436 11.3954 5.14489 11.3995C5.17542 11.4035 5.20486 11.4135 5.23153 11.4288C5.2582 11.4442 5.28157 11.4647 5.30032 11.4892C5.31907 11.5136 5.33283 11.5415 5.34081 11.5712C5.34878 11.6009 5.35082 11.632 5.34681 11.6625C5.3428 11.693 5.33281 11.7225 5.31743 11.7491L4.6661 12.8772C4.64551 12.9128 4.61588 12.9424 4.58021 12.963C4.54454 12.9836 4.50407 12.9942 4.46289 12.9941Z" fill="url(#paint7_linear_4264_1600)"/>
<path d="M7.5 14.7654C7.43784 14.7654 7.37823 14.7408 7.33427 14.6968C7.29032 14.6528 7.26562 14.5932 7.26562 14.5311V12.271C7.26562 12.2088 7.29032 12.1492 7.33427 12.1053C7.37823 12.0613 7.43784 12.0366 7.5 12.0366C7.56216 12.0366 7.62177 12.0613 7.66573 12.1053C7.70968 12.1492 7.73438 12.2088 7.73438 12.271V14.5311C7.73438 14.5932 7.70968 14.6528 7.66573 14.6968C7.62177 14.7408 7.56216 14.7654 7.5 14.7654Z" fill="url(#paint8_linear_4264_1600)"/>
<path d="M10.537 12.9941C10.4959 12.9942 10.4554 12.9833 10.4197 12.9628C10.384 12.9422 10.3544 12.9126 10.3338 12.8769L9.68251 11.7491C9.66712 11.7225 9.65713 11.693 9.65312 11.6625C9.64911 11.632 9.65115 11.6009 9.65913 11.5712C9.6671 11.5415 9.68086 11.5136 9.69961 11.4892C9.71836 11.4647 9.74174 11.4442 9.76841 11.4288C9.79508 11.4135 9.82452 11.4035 9.85505 11.3995C9.88557 11.3954 9.91659 11.3975 9.94633 11.4055C9.97607 11.4134 10.004 11.4272 10.0284 11.4459C10.0528 11.4647 10.0733 11.4881 10.0887 11.5147L10.7398 12.6428C10.7603 12.6784 10.7712 12.7188 10.7712 12.7599C10.7712 12.801 10.7604 12.8414 10.7398 12.8771C10.7193 12.9127 10.6897 12.9423 10.6541 12.9629C10.6185 12.9835 10.5782 12.9941 10.537 12.9941Z" fill="url(#paint9_linear_4264_1600)"/>
<path d="M13.589 11.2498C13.5479 11.2498 13.5076 11.2389 13.472 11.2184L11.5147 10.0884C11.4609 10.0574 11.4216 10.0062 11.4055 9.94609C11.3894 9.88603 11.3978 9.82203 11.4288 9.76816C11.4599 9.7143 11.5111 9.67499 11.5712 9.65888C11.6313 9.64277 11.6953 9.65118 11.7491 9.68226L13.7064 10.8124C13.7511 10.8382 13.786 10.8781 13.8057 10.9258C13.8255 10.9734 13.8289 11.0263 13.8155 11.0762C13.8022 11.126 13.7727 11.17 13.7317 11.2014C13.6908 11.2328 13.6406 11.2498 13.589 11.2498Z" fill="url(#paint10_linear_4264_1600)"/>
<path d="M13.5737 7.73438H12.2712C12.2091 7.73438 12.1495 7.70968 12.1055 7.66573C12.0616 7.62177 12.0369 7.56216 12.0369 7.5C12.0369 7.43784 12.0616 7.37823 12.1055 7.33427C12.1495 7.29032 12.2091 7.26562 12.2712 7.26562H13.5737C13.6358 7.26562 13.6954 7.29032 13.7394 7.33427C13.7833 7.37823 13.808 7.43784 13.808 7.5C13.808 7.56216 13.7833 7.62177 13.7394 7.66573C13.6954 7.70968 13.6358 7.73438 13.5737 7.73438Z" fill="url(#paint11_linear_4264_1600)"/>
<path d="M11.6321 5.34847C11.5805 5.34847 11.5303 5.33145 11.4894 5.30004C11.4485 5.26863 11.419 5.22459 11.4057 5.17476C11.3923 5.12493 11.3958 5.07208 11.4155 5.02441C11.4353 4.97675 11.4702 4.93693 11.5149 4.91113L13.4721 3.78121C13.4988 3.76558 13.5283 3.75537 13.5589 3.75118C13.5896 3.747 13.6207 3.74891 13.6506 3.75681C13.6805 3.76471 13.7085 3.77844 13.733 3.79722C13.7576 3.81599 13.7782 3.83944 13.7937 3.86621C13.8091 3.89298 13.8191 3.92254 13.8231 3.95319C13.8271 3.98384 13.825 4.01498 13.8169 4.04481C13.8088 4.07464 13.7949 4.10257 13.7759 4.127C13.757 4.15143 13.7334 4.17187 13.7065 4.18714L11.7493 5.3173C11.7136 5.33782 11.6732 5.34857 11.6321 5.34847Z" fill="url(#paint12_linear_4264_1600)"/>
<path d="M9.8855 3.60254C9.84438 3.6025 9.804 3.59164 9.7684 3.57105C9.7328 3.55046 9.70325 3.52087 9.68271 3.48525C9.66217 3.44962 9.65136 3.40922 9.65137 3.3681C9.65138 3.32698 9.66221 3.28659 9.68277 3.25098L10.3339 2.12293C10.3491 2.09606 10.3696 2.07248 10.394 2.05354C10.4184 2.0346 10.4464 2.02068 10.4762 2.01258C10.506 2.00448 10.5372 2.00237 10.5678 2.00635C10.5985 2.01033 10.628 2.02034 10.6548 2.0358C10.6816 2.05125 10.705 2.07185 10.7238 2.0964C10.7426 2.12096 10.7563 2.14898 10.7642 2.17886C10.7721 2.20875 10.774 2.2399 10.7698 2.27052C10.7656 2.30114 10.7554 2.33064 10.7398 2.3573L10.0887 3.48535C10.0681 3.52101 10.0385 3.55062 10.0028 3.57119C9.96715 3.59177 9.92668 3.60258 9.8855 3.60254Z" fill="url(#paint13_linear_4264_1600)"/>
<path d="M3.87354 8.4375C4.08037 9.24215 4.54893 9.95516 5.20547 10.4643C5.862 10.9734 6.66921 11.2497 7.50002 11.2497C8.33082 11.2497 9.13803 10.9734 9.79457 10.4643C10.4511 9.95516 10.9197 9.24215 11.1265 8.4375H3.87354Z" fill="url(#paint14_linear_4264_1600)"/>
<path d="M7.26562 1.875V2.72883C7.26562 2.79099 7.29032 2.8506 7.33427 2.89456C7.37823 2.93851 7.43784 2.9632 7.5 2.9632C7.56216 2.9632 7.62177 2.93851 7.66573 2.89456C7.70968 2.8506 7.73438 2.79099 7.73438 2.72883V1.875H7.26562Z" fill="url(#paint15_linear_4264_1600)"/>
<path d="M4.48462 2.74561L4.91142 3.48506C4.9425 3.53892 4.9937 3.57823 5.05376 3.59434C5.11383 3.61045 5.17783 3.60204 5.23169 3.57096C5.28555 3.53988 5.32486 3.48867 5.34097 3.42861C5.35708 3.36855 5.34867 3.30455 5.31759 3.25068L4.89056 2.51123L4.48462 2.74561Z" fill="url(#paint16_linear_4264_1600)"/>
<path d="M2.51123 4.89031L3.25068 5.31734C3.30449 5.34793 3.3682 5.356 3.42793 5.33978C3.48766 5.32357 3.53855 5.28439 3.5695 5.23079C3.60044 5.17719 3.60893 5.11353 3.59311 5.05369C3.57729 4.99386 3.53845 4.94271 3.48506 4.91141L2.74561 4.48438L2.51123 4.89031Z" fill="url(#paint17_linear_4264_1600)"/>
<path d="M1.875 7.73438H2.72883C2.79099 7.73438 2.8506 7.70968 2.89456 7.66573C2.93851 7.62177 2.9632 7.56216 2.9632 7.5C2.9632 7.43784 2.93851 7.37823 2.89456 7.33427C2.8506 7.29032 2.79099 7.26562 2.72883 7.26562H1.875V7.73438Z" fill="url(#paint18_linear_4264_1600)"/>
<path d="M2.74561 10.5152L3.48506 10.0884C3.53892 10.0574 3.57823 10.0062 3.59434 9.94609C3.61045 9.88603 3.60204 9.82203 3.57096 9.76816C3.53988 9.7143 3.48867 9.67499 3.42861 9.65888C3.36855 9.64277 3.30455 9.65118 3.25068 9.68226L2.51123 10.1093L2.74561 10.5152Z" fill="url(#paint19_linear_4264_1600)"/>
<path d="M4.89056 12.4886L5.31759 11.7491C5.34818 11.6953 5.35624 11.6316 5.34003 11.5719C5.32381 11.5122 5.28463 11.4613 5.23103 11.4303C5.17743 11.3994 5.11377 11.3909 5.05393 11.4067C4.9941 11.4225 4.94295 11.4614 4.91165 11.5148L4.48462 12.2542L4.89056 12.4886Z" fill="url(#paint20_linear_4264_1600)"/>
<path d="M7.73438 13.1248V12.271C7.73438 12.2088 7.70968 12.1492 7.66573 12.1053C7.62177 12.0613 7.56216 12.0366 7.5 12.0366C7.43784 12.0366 7.37823 12.0613 7.33427 12.1053C7.29032 12.1492 7.26562 12.2088 7.26562 12.271V13.1248H7.73438Z" fill="url(#paint21_linear_4264_1600)"/>
<path d="M10.5155 12.2542L10.0884 11.5148C10.0571 11.4614 10.006 11.4225 9.94614 11.4067C9.8863 11.3909 9.82264 11.3994 9.76904 11.4303C9.71544 11.4613 9.67626 11.5122 9.66004 11.5719C9.64383 11.6316 9.6519 11.6953 9.68248 11.7491L10.1095 12.4886L10.5155 12.2542Z" fill="url(#paint22_linear_4264_1600)"/>
<path d="M12.4886 10.1095L11.7491 9.68248C11.6953 9.6519 11.6316 9.64383 11.5719 9.66004C11.5122 9.67626 11.4613 9.71544 11.4303 9.76904C11.3994 9.82264 11.3909 9.8863 11.4067 9.94614C11.4225 10.006 11.4614 10.0571 11.5148 10.0884L12.2542 10.5155L12.4886 10.1095Z" fill="url(#paint23_linear_4264_1600)"/>
<path d="M13.1251 7.26562H12.2712C12.2091 7.26562 12.1495 7.29032 12.1055 7.33427C12.0616 7.37823 12.0369 7.43784 12.0369 7.5C12.0369 7.56216 12.0616 7.62177 12.1055 7.66573C12.1495 7.70968 12.2091 7.73438 12.2712 7.73438H13.1251V7.26562Z" fill="url(#paint24_linear_4264_1600)"/>
<path d="M12.2542 4.48438L11.5148 4.91141C11.4614 4.94271 11.4225 4.99386 11.4067 5.05369C11.3909 5.11353 11.3994 5.17719 11.4303 5.23079C11.4613 5.28439 11.5122 5.32357 11.5719 5.33978C11.6316 5.356 11.6953 5.34793 11.7491 5.31734L12.4886 4.89031L12.2542 4.48438Z" fill="url(#paint25_linear_4264_1600)"/>
<path d="M10.1095 2.51123L9.68248 3.25068C9.6519 3.30449 9.64383 3.3682 9.66004 3.42793C9.67626 3.48766 9.71544 3.53855 9.76904 3.5695C9.82264 3.60044 9.8863 3.60893 9.94614 3.59311C10.006 3.57729 10.0571 3.53845 10.0884 3.48506L10.5155 2.74561L10.1095 2.51123Z" fill="url(#paint26_linear_4264_1600)"/>
<defs>
<linearGradient id="paint0_linear_4264_1600" x1="3.75" y1="7.5" x2="11.25" y2="7.5" gradientUnits="userSpaceOnUse">
<stop stop-color="#F4F42A"/>
<stop offset="1" stop-color="#FFB92B"/>
</linearGradient>
<linearGradient id="paint1_linear_4264_1600" x1="6.80838" y1="6.25721" x2="5.47127" y2="4.37378" gradientUnits="userSpaceOnUse">
<stop stop-color="#FEFFC0" stop-opacity="0"/>
<stop offset="1" stop-color="#F8FF9B"/>
</linearGradient>
<linearGradient id="paint2_linear_4264_1600" x1="7.73438" y1="1.59891" x2="7.26562" y2="1.59891" gradientUnits="userSpaceOnUse">
<stop stop-color="#F4F42A"/>
<stop offset="1" stop-color="#FFB92B"/>
</linearGradient>
<linearGradient id="paint3_linear_4264_1600" x1="4.96029" y1="2.70512" x2="4.66193" y2="2.87762" gradientUnits="userSpaceOnUse">
<stop stop-color="#F4F42A"/>
<stop offset="1" stop-color="#FFB92B"/>
</linearGradient>
<linearGradient id="paint4_linear_4264_1600" x1="2.50504" y1="4.34881" x2="2.26551" y2="4.76389" gradientUnits="userSpaceOnUse">
<stop stop-color="#F4F42A"/>
<stop offset="1" stop-color="#FFB92B"/>
</linearGradient>
<linearGradient id="paint5_linear_4264_1600" x1="2.07761" y1="7.26562" x2="2.07761" y2="7.69242" gradientUnits="userSpaceOnUse">
<stop stop-color="#F4F42A"/>
<stop offset="1" stop-color="#FFB92B"/>
</linearGradient>
<linearGradient id="paint6_linear_4264_1600" x1="2.29048" y1="10.2795" x2="2.49485" y2="10.6334" gradientUnits="userSpaceOnUse">
<stop stop-color="#F4F42A"/>
<stop offset="1" stop-color="#FFB92B"/>
</linearGradient>
<linearGradient id="paint7_linear_4264_1600" x1="4.6218" y1="12.0995" x2="4.98532" y2="12.3093" gradientUnits="userSpaceOnUse">
<stop stop-color="#F4F42A"/>
<stop offset="1" stop-color="#FFB92B"/>
</linearGradient>
<linearGradient id="paint8_linear_4264_1600" x1="7.26562" y1="13.4009" x2="7.73438" y2="13.4009" gradientUnits="userSpaceOnUse">
<stop stop-color="#F4F42A"/>
<stop offset="1" stop-color="#FFB92B"/>
</linearGradient>
<linearGradient id="paint9_linear_4264_1600" x1="10.0083" y1="12.313" x2="10.4142" y2="12.0787" gradientUnits="userSpaceOnUse">
<stop stop-color="#F4F42A"/>
<stop offset="1" stop-color="#FFB92B"/>
</linearGradient>
<linearGradient id="paint10_linear_4264_1600" x1="12.4933" y1="10.6535" x2="12.7279" y2="10.2473" gradientUnits="userSpaceOnUse">
<stop stop-color="#F4F42A"/>
<stop offset="1" stop-color="#FFB92B"/>
</linearGradient>
<linearGradient id="paint11_linear_4264_1600" x1="12.9226" y1="7.73438" x2="12.9226" y2="7.26562" gradientUnits="userSpaceOnUse">
<stop stop-color="#F4F42A"/>
<stop offset="1" stop-color="#FFB92B"/>
</linearGradient>
<linearGradient id="paint12_linear_4264_1600" x1="12.728" y1="4.75222" x2="12.4934" y2="4.34605" gradientUnits="userSpaceOnUse">
<stop stop-color="#F4F42A"/>
<stop offset="1" stop-color="#FFB92B"/>
</linearGradient>
<linearGradient id="paint13_linear_4264_1600" x1="10.4143" y1="2.92144" x2="10.0083" y2="2.68707" gradientUnits="userSpaceOnUse">
<stop stop-color="#F4F42A"/>
<stop offset="1" stop-color="#FFB92B"/>
</linearGradient>
<linearGradient id="paint14_linear_4264_1600" x1="7.50002" y1="8.4375" x2="7.50002" y2="11.25" gradientUnits="userSpaceOnUse">
<stop stop-color="#FFB92B" stop-opacity="0"/>
<stop offset="1" stop-color="#FFB92B"/>
</linearGradient>
<linearGradient id="paint15_linear_4264_1600" x1="8.33231e-08" y1="1.875" x2="0.234375" y2="2.9632" gradientUnits="userSpaceOnUse">
<stop stop-color="#FFB92B" stop-opacity="0"/>
<stop offset="1" stop-color="#FFB92B"/>
</linearGradient>
<linearGradient id="paint16_linear_4264_1600" x1="-1.8076" y1="6.37851" x2="-1.06053" y2="7.20373" gradientUnits="userSpaceOnUse">
<stop stop-color="#FFB92B" stop-opacity="0"/>
<stop offset="1" stop-color="#FFB92B"/>
</linearGradient>
<linearGradient id="paint17_linear_4264_1600" x1="-1.12169" y1="11.1826" x2="-0.0620943" y2="11.5238" gradientUnits="userSpaceOnUse">
<stop stop-color="#FFB92B" stop-opacity="0"/>
<stop offset="1" stop-color="#FFB92B"/>
</linearGradient>
<linearGradient id="paint18_linear_4264_1600" x1="1.875" y1="15" x2="2.9632" y2="14.7656" gradientUnits="userSpaceOnUse">
<stop stop-color="#FFB92B" stop-opacity="0"/>
<stop offset="1" stop-color="#FFB92B"/>
</linearGradient>
<linearGradient id="paint19_linear_4264_1600" x1="6.37851" y1="16.8075" x2="7.20373" y2="16.0604" gradientUnits="userSpaceOnUse">
<stop stop-color="#FFB92B" stop-opacity="0"/>
<stop offset="1" stop-color="#FFB92B"/>
</linearGradient>
<linearGradient id="paint20_linear_4264_1600" x1="11.1828" y1="16.1213" x2="11.5239" y2="15.0617" gradientUnits="userSpaceOnUse">
<stop stop-color="#FFB92B" stop-opacity="0"/>
<stop offset="1" stop-color="#FFB92B"/>
</linearGradient>
<linearGradient id="paint21_linear_4264_1600" x1="15" y1="13.1248" x2="14.7656" y2="12.0366" gradientUnits="userSpaceOnUse">
<stop stop-color="#FFB92B" stop-opacity="0"/>
<stop offset="1" stop-color="#FFB92B"/>
</linearGradient>
<linearGradient id="paint22_linear_4264_1600" x1="16.8077" y1="8.62132" x2="16.0606" y2="7.79609" gradientUnits="userSpaceOnUse">
<stop stop-color="#FFB92B" stop-opacity="0"/>
<stop offset="1" stop-color="#FFB92B"/>
</linearGradient>
<linearGradient id="paint23_linear_4264_1600" x1="16.1213" y1="3.81729" x2="15.0617" y2="3.47617" gradientUnits="userSpaceOnUse">
<stop stop-color="#FFB92B" stop-opacity="0"/>
<stop offset="1" stop-color="#FFB92B"/>
</linearGradient>
<linearGradient id="paint24_linear_4264_1600" x1="13.1251" y1="-3.52249e-07" x2="12.0369" y2="0.234375" gradientUnits="userSpaceOnUse">
<stop stop-color="#FFB92B" stop-opacity="0"/>
<stop offset="1" stop-color="#FFB92B"/>
</linearGradient>
<linearGradient id="paint25_linear_4264_1600" x1="8.62132" y1="-1.80785" x2="7.79609" y2="-1.06077" gradientUnits="userSpaceOnUse">
<stop stop-color="#FFB92B" stop-opacity="0"/>
<stop offset="1" stop-color="#FFB92B"/>
</linearGradient>
<linearGradient id="paint26_linear_4264_1600" x1="3.81729" y1="-1.12149" x2="3.47617" y2="-0.0618912" gradientUnits="userSpaceOnUse">
<stop stop-color="#FFB92B" stop-opacity="0"/>
<stop offset="1" stop-color="#FFB92B"/>
</linearGradient>
</defs>
</svg>
