<svg width="30" height="30" viewBox="0 0 30 30" fill="none" xmlns="http://www.w3.org/2000/svg">
<path d="M21.72 21.24H8.28C7.464 21.24 6.84 20.616 6.84 19.8V11.16C6.84 10.344 7.464 9.71999 8.28 9.71999H11.16C11.256 9.71999 11.4 9.62399 11.448 9.57599L11.976 8.51999C12.168 8.13599 12.648 7.84799 13.08 7.84799H16.92C17.352 7.84799 17.832 8.13599 18.024 8.51999L18.552 9.57599C18.6 9.67199 18.744 9.71999 18.84 9.71999H21.72C22.536 9.71999 23.16 10.344 23.16 11.16V19.8C23.16 20.616 22.536 21.24 21.72 21.24ZM8.28 10.68C7.992 10.68 7.8 10.872 7.8 11.16V19.8C7.8 20.088 7.992 20.28 8.28 20.28H21.72C22.008 20.28 22.2 20.088 22.2 19.8V11.16C22.2 10.872 22.008 10.68 21.72 10.68H18.84C18.408 10.68 17.928 10.392 17.736 10.008L17.208 8.95199C17.16 8.85599 17.016 8.75999 16.92 8.75999H13.08C12.984 8.75999 12.84 8.85599 12.792 8.90399L12.264 9.95999C12.072 10.392 11.592 10.68 11.16 10.68H8.28Z" fill="#38464A"/>
<path d="M15 19.32C12.6 19.32 10.68 17.4 10.68 15C10.68 12.6 12.6 10.68 15 10.68C17.4 10.68 19.32 12.6 19.32 15C19.32 17.4 17.4 19.32 15 19.32ZM15 11.64C13.128 11.64 11.64 13.128 11.64 15C11.64 16.872 13.128 18.36 15 18.36C16.872 18.36 18.36 16.872 18.36 15C18.36 13.128 16.872 11.64 15 11.64Z" fill="#38464A"/>
<path d="M19.8 12.12C20.0651 12.12 20.28 11.9051 20.28 11.64C20.28 11.3749 20.0651 11.16 19.8 11.16C19.5349 11.16 19.32 11.3749 19.32 11.64C19.32 11.9051 19.5349 12.12 19.8 12.12Z" fill="#38464A"/>
<path d="M8.76001 8.76001H10.68V9.24001H8.76001V8.76001ZM15 13.08V12.6C13.656 12.6 12.6 13.656 12.6 15H13.08C13.08 13.944 13.944 13.08 15 13.08Z" fill="#38464A"/>
</svg>
