<svg width="20" height="20" viewBox="0 0 20 20" fill="none" xmlns="http://www.w3.org/2000/svg">
<g clip-path="url(#clip0_793_11842)">
<path d="M10 0C4.48125 0 0 4.48125 0 10C0 15.5188 4.48125 20 10 20C15.5188 20 20 15.5188 20 10C20 4.48125 15.5188 0 10 0ZM10 0.625C11.9507 0.623759 13.8526 1.23428 15.4381 2.37063C13.3881 8.06875 13.7169 13.0863 15.4344 17.6319C13.8496 18.7666 11.9491 19.3762 10 19.375C8.05032 19.3761 6.14934 18.766 4.56437 17.6306C6.28125 13.0869 6.61 8.06938 4.56063 2.37313C6.14612 1.23553 8.04861 0.6241 10 0.625ZM15.9631 2.76375L15.9644 2.765C17.0324 3.64379 17.8923 4.74849 18.482 5.99955C19.0718 7.25062 19.3768 8.6169 19.375 10C19.375 12.9181 18.0444 15.5225 15.9569 17.2413C14.3562 12.9075 14.055 8.185 15.9631 2.76375ZM4.03562 2.765C5.94312 8.185 5.64187 12.9069 4.04187 17.24C2.97204 16.3613 2.1106 15.256 1.51972 14.004C0.928837 12.752 0.623247 11.3844 0.625 10C0.625 7.08562 1.9525 4.48375 4.03562 2.765Z" fill="#38464A"/>
</g>
<defs>
<clipPath id="clip0_793_11842">
<rect width="20" height="20" fill="white"/>
</clipPath>
</defs>
</svg>
