<svg width="12" height="15" viewBox="0 0 12 15" fill="none" xmlns="http://www.w3.org/2000/svg">
<path d="M11.0745 8.76008L11.0761 8.75245C11.0761 8.74791 11.0738 8.74416 11.0735 8.73971C11.0594 7.4191 10.5297 6.1563 9.59747 5.22083C9.59401 5.21685 9.59277 5.21181 9.58899 5.20803C9.58521 5.20425 9.58022 5.20304 9.57628 5.1996C8.63377 4.25918 7.35884 3.72775 6.02742 3.72032C4.69601 3.7129 3.41523 4.23008 2.46229 5.15992C2.45447 5.16443 2.44695 5.16943 2.43977 5.17489C2.43565 5.179 2.43423 5.18447 2.4305 5.18881C1.47837 6.12678 0.935883 7.40326 0.921398 8.73972C0.921144 8.74417 0.918836 8.74792 0.918836 8.75246L0.920387 8.76009C0.920276 8.77331 0.918388 8.78611 0.918388 8.79934C0.91771 10.1408 1.44948 11.4276 2.3969 12.3773C2.40056 12.3815 2.40191 12.3868 2.40594 12.3909C2.40998 12.3949 2.41533 12.3963 2.41956 12.3999C2.89268 12.8715 3.45438 13.245 4.07235 13.4987C4.69033 13.7524 5.35237 13.8815 6.02039 13.8784C6.68842 13.8753 7.34924 13.7402 7.96485 13.4808C8.58046 13.2214 9.13871 12.8428 9.60747 12.3669C9.61199 12.363 9.61763 12.3615 9.6219 12.3573C9.62757 12.3499 9.63275 12.3421 9.63741 12.3339C10.5602 11.3888 11.0767 10.1202 11.0765 8.79934C11.0765 8.78609 11.0747 8.7733 11.0745 8.76008ZM9.44801 11.8569L8.98388 11.3928C8.94044 11.3502 8.88196 11.3265 8.82114 11.3268C8.76032 11.3271 8.70208 11.3514 8.65907 11.3944C8.61607 11.4374 8.59177 11.4956 8.59146 11.5565C8.59116 11.6173 8.61486 11.6758 8.65743 11.7192L9.12475 12.1865C8.33256 12.9206 7.30703 13.352 6.22833 13.405V12.6977C6.22833 12.6365 6.20401 12.5778 6.16071 12.5345C6.11742 12.4912 6.0587 12.4668 5.99747 12.4668C5.93624 12.4668 5.87751 12.4912 5.83422 12.5345C5.79092 12.5778 5.7666 12.6365 5.7666 12.6977V13.405C4.7041 13.3528 3.69268 12.9333 2.9051 12.2182L3.40426 11.7192C3.42605 11.6979 3.44339 11.6724 3.45528 11.6443C3.46717 11.6162 3.47337 11.586 3.47353 11.5555C3.47368 11.525 3.46779 11.4948 3.45618 11.4666C3.44458 11.4383 3.42749 11.4127 3.40592 11.3911C3.38434 11.3695 3.35871 11.3525 3.33049 11.3409C3.30227 11.3293 3.27203 11.3234 3.24152 11.3235C3.21101 11.3237 3.18083 11.3299 3.15273 11.3418C3.12463 11.3536 3.09917 11.371 3.07782 11.3928L2.57864 11.8918C1.85254 11.0923 1.43147 10.0625 1.38944 8.98329H2.09346C2.15469 8.98329 2.21341 8.95897 2.25671 8.91567C2.30001 8.87237 2.32433 8.81365 2.32433 8.75242C2.32433 8.69119 2.30001 8.63247 2.25671 8.58918C2.21341 8.54588 2.15469 8.52156 2.09346 8.52156H1.39421C1.45733 7.45953 1.88716 6.45235 2.61032 5.67201L3.10669 6.16869C3.15013 6.21126 3.20861 6.23497 3.26943 6.23466C3.33025 6.23435 3.38849 6.21005 3.43149 6.16705C3.4745 6.12404 3.4988 6.0658 3.4991 6.00498C3.49941 5.94416 3.4757 5.88568 3.43313 5.84224L2.93996 5.34874C3.72281 4.65252 4.72021 4.24496 5.7666 4.19369V4.84822C5.7666 4.90945 5.79092 4.96817 5.83422 5.01146C5.87751 5.05476 5.93624 5.07908 5.99747 5.07908C6.0587 5.07908 6.11742 5.05476 6.16071 5.01146C6.20401 4.96817 6.22833 4.90945 6.22833 4.84822V4.19369C7.2909 4.24588 8.30237 4.66538 9.08997 5.38055L8.62809 5.84225C8.6063 5.86361 8.58896 5.88907 8.57707 5.91717C8.56518 5.94527 8.55898 5.97545 8.55882 6.00596C8.55867 6.03647 8.56456 6.06671 8.57617 6.09493C8.58777 6.12314 8.60486 6.14878 8.62643 6.17036C8.64801 6.19193 8.67364 6.20901 8.70186 6.22062C8.73008 6.23222 8.76032 6.23812 8.79083 6.23797C8.82134 6.23781 8.85152 6.23161 8.87962 6.21972C8.90772 6.20783 8.93318 6.19049 8.95454 6.1687L9.4164 5.70704C10.1207 6.48265 10.5386 7.47577 10.6007 8.52158H9.94295C9.88172 8.52158 9.823 8.54591 9.77971 8.5892C9.73641 8.6325 9.71209 8.69122 9.71209 8.75245C9.71209 8.81368 9.73641 8.8724 9.77971 8.9157C9.823 8.95899 9.88172 8.98332 9.94295 8.98332H10.6055C10.5642 10.0463 10.1551 11.062 9.44801 11.8569ZM6.21147 8.11763C6.21979 8.0955 6.22458 8.07219 6.22565 8.04856L6.23106 6.65749C6.2312 6.62717 6.22536 6.59712 6.21387 6.56905C6.20239 6.54099 6.18549 6.51546 6.16413 6.49393C6.14277 6.47241 6.11739 6.4553 6.08941 6.44359C6.06144 6.43188 6.03144 6.4258 6.00111 6.4257H6.00019C5.93912 6.42569 5.88053 6.44988 5.83726 6.49298C5.79399 6.53608 5.76956 6.59457 5.76932 6.65564L5.76391 8.04671C5.76469 8.0715 5.76953 8.09599 5.77826 8.1192C5.6174 8.17203 5.48166 8.28231 5.39702 8.42894C5.31238 8.57558 5.28479 8.74828 5.31951 8.91399L4.22765 9.7031C4.17814 9.73902 4.14491 9.79312 4.13524 9.85352C4.12558 9.91393 4.14029 9.97569 4.17612 10.0253C4.21196 10.0748 4.266 10.1082 4.32639 10.1179C4.38677 10.1277 4.44856 10.1131 4.4982 10.0774L5.56296 9.30779C5.68517 9.40908 5.83874 9.46484 5.99747 9.46556C6.1622 9.46603 6.32168 9.4076 6.44712 9.30081C6.57256 9.19403 6.6557 9.04592 6.68153 8.88322C6.70736 8.72051 6.67418 8.55394 6.58798 8.41355C6.50178 8.27317 6.36826 8.16821 6.21147 8.11763ZM5.99747 9.00383C5.95181 9.00383 5.90717 8.99029 5.8692 8.96492C5.83124 8.93955 5.80165 8.9035 5.78417 8.86131C5.7667 8.81913 5.76213 8.77271 5.77104 8.72792C5.77994 8.68314 5.80193 8.642 5.83422 8.60971C5.86651 8.57743 5.90764 8.55544 5.95243 8.54653C5.99721 8.53762 6.04363 8.54219 6.08582 8.55967C6.128 8.57714 6.16406 8.60673 6.18943 8.6447C6.21479 8.68266 6.22833 8.7273 6.22833 8.77296C6.22825 8.83417 6.20391 8.89284 6.16063 8.93612C6.11735 8.9794 6.05867 9.00375 5.99747 9.00383ZM9.8134 4.14279L10.0897 3.86672L10.4511 4.22821C10.4726 4.24965 10.498 4.26666 10.526 4.27826C10.554 4.28987 10.584 4.29584 10.6144 4.29584C10.6447 4.29584 10.6747 4.28987 10.7027 4.27826C10.7307 4.26666 10.7561 4.24965 10.7776 4.22821L11.4756 3.52996C11.497 3.50853 11.5141 3.48309 11.5257 3.45508C11.5373 3.42707 11.5432 3.39705 11.5432 3.36674C11.5432 3.33642 11.5373 3.30641 11.5257 3.2784C11.5141 3.25039 11.497 3.22495 11.4756 3.20352L10.4286 2.15649C10.4072 2.13505 10.3817 2.11804 10.3537 2.10644C10.3257 2.09483 10.2957 2.08886 10.2654 2.08886C10.235 2.08886 10.205 2.09483 10.177 2.10644C10.149 2.11804 10.1236 2.13505 10.1021 2.15649L9.40411 2.8545C9.38267 2.87594 9.36566 2.90138 9.35406 2.92939C9.34246 2.95739 9.33648 2.98741 9.33648 3.01773C9.33648 3.04804 9.34246 3.07806 9.35406 3.10607C9.36566 3.13407 9.38267 3.15952 9.40411 3.18095L9.76329 3.54018L9.43993 3.86332C8.62545 3.2891 7.68001 2.92822 6.69007 2.81367V1.84694C6.8737 1.84674 7.04975 1.7737 7.17959 1.64386C7.30944 1.51401 7.38247 1.33797 7.38267 1.15434V0.692602C7.38247 0.508974 7.30944 0.332925 7.17959 0.20308C7.04975 0.0732352 6.8737 0.000200438 6.69007 0L5.30486 0C5.12124 0.000200438 4.94519 0.0732352 4.81534 0.20308C4.6855 0.332925 4.61246 0.508974 4.61226 0.692602V1.15434C4.61246 1.33797 4.6855 1.51401 4.81534 1.64386C4.94519 1.7737 5.12124 1.84674 5.30486 1.84694V2.81367C4.28883 2.93183 3.3203 3.30944 2.49241 3.91017L2.12368 3.5413L2.48395 3.18096C2.5054 3.15953 2.5224 3.13408 2.53401 3.10608C2.54561 3.07807 2.55158 3.04805 2.55158 3.01774C2.55158 2.98742 2.54561 2.9574 2.53401 2.9294C2.5224 2.90139 2.5054 2.87595 2.48395 2.85451L1.78594 2.15649C1.76451 2.13505 1.73906 2.11804 1.71106 2.10644C1.68305 2.09483 1.65303 2.08886 1.62272 2.08886C1.5924 2.08886 1.56238 2.09483 1.53438 2.10644C1.50637 2.11804 1.48093 2.13505 1.45949 2.15649L0.41246 3.20352C0.39102 3.22495 0.374012 3.25039 0.362408 3.2784C0.350804 3.30641 0.344831 3.33642 0.344831 3.36674C0.344831 3.39705 0.350804 3.42707 0.362408 3.45508C0.374012 3.48309 0.39102 3.50853 0.41246 3.52996L1.11046 4.22821C1.1319 4.24965 1.15734 4.26666 1.18535 4.27826C1.21335 4.28987 1.24337 4.29584 1.27369 4.29584C1.304 4.29584 1.33402 4.28987 1.36203 4.27826C1.39003 4.26666 1.41548 4.24965 1.43691 4.22821L1.79725 3.86782L2.12419 4.1949C1.18322 4.99116 0.510337 6.05791 0.197038 7.25008C-0.116262 8.44226 -0.0547705 9.702 0.373151 10.858C0.801072 12.014 1.57465 13.0101 2.5887 13.711C3.60274 14.4118 4.80803 14.7833 6.04066 14.7749C7.27329 14.7666 8.47343 14.3788 9.47788 13.6643C10.4823 12.9498 11.2423 11.9432 11.6546 10.7816C12.0668 9.61986 12.1112 8.3594 11.7818 7.17158C11.4523 5.98376 10.7651 4.92622 9.8134 4.14279ZM10.2654 2.6462L10.9859 3.36674L10.6144 3.73852L9.8938 3.01775L10.2654 2.6462ZM1.63432 3.37779L1.63376 3.37835L1.2737 3.73851L0.902148 3.36674L1.62271 2.6462L1.99426 3.01776L1.63432 3.37779ZM5.074 1.15434V0.692602C5.07408 0.631397 5.09843 0.572721 5.1417 0.529442C5.18498 0.486163 5.24366 0.461814 5.30486 0.461735H6.69007C6.75127 0.461814 6.80995 0.486163 6.85323 0.529442C6.89651 0.572721 6.92086 0.631397 6.92094 0.692602V1.15434C6.92086 1.21554 6.89651 1.27422 6.85323 1.3175C6.80995 1.36078 6.75127 1.38513 6.69007 1.3852H5.30486C5.24366 1.38513 5.18498 1.36078 5.1417 1.3175C5.09843 1.27422 5.07408 1.21554 5.074 1.15434ZM6.22833 1.84694V2.7821C6.15111 2.77914 6.07539 2.77041 5.99747 2.77041C5.91954 2.77041 5.84382 2.77914 5.7666 2.7821V1.84694H6.22833ZM5.99747 14.3138C4.9016 14.3138 3.83034 13.9888 2.91915 13.38C2.00797 12.7711 1.29779 11.9058 0.878418 10.8933C0.459046 9.88089 0.34932 8.76682 0.563113 7.692C0.776907 6.61719 1.30462 5.62991 2.07952 4.85501C2.85441 4.08011 3.84169 3.5524 4.91651 3.33861C5.99132 3.12482 7.10539 3.23454 8.11785 3.65391C9.1303 4.07328 9.99565 4.78347 10.6045 5.69465C11.2133 6.60583 11.5383 7.67709 11.5383 8.77296C11.5366 10.242 10.9524 11.6503 9.9136 12.6891C8.87485 13.7278 7.46648 14.3121 5.99747 14.3138Z" fill="#38464A"/>
</svg>
