<svg width="30" height="30" viewBox="0 0 30 30" fill="none" xmlns="http://www.w3.org/2000/svg">
<path d="M11.7844 18.8405C12.0923 18.8021 12.4037 18.9096 12.6262 19.1266L12.716 19.2262L13.0617 19.693L10.4289 23.943L9.75702 22.4704H9.75507C9.63744 22.1926 9.3659 22.0681 9.12616 22.068H9.10663L7.48651 22.1315L9.5412 18.8366C9.8754 18.988 10.2503 19.0347 10.6301 18.9948H10.6379L10.6447 18.9938L11.7834 18.8395L11.7844 18.8405ZM22.5344 22.111L20.8937 22.0465L20.884 22.0456H20.8742C20.5883 22.0456 20.3854 22.2242 20.2824 22.3786L20.2599 22.4118L20.2433 22.4479L19.5705 23.9215L16.9406 19.6764L17.3068 19.2038C17.529 18.9225 17.8833 18.7749 18.2336 18.817V18.818L19.3771 18.9713L19.3889 18.9733C19.779 19.0166 20.1482 18.9455 20.4728 18.8034L22.5344 22.111Z" stroke="#38464A"/>
<path d="M15.0002 8.724C16.9961 8.72414 18.6135 10.3424 18.6135 12.3383C18.6134 14.334 16.996 15.9514 15.0002 15.9515C13.0044 15.9515 11.3861 14.3341 11.386 12.3383C11.386 10.3423 13.0043 8.724 15.0002 8.724Z" stroke="#38464A"/>
<path d="M16.7363 17.4327C16.5695 17.5426 16.4202 17.6805 16.2968 17.8418L16.2949 17.8448L15.6835 18.6524C15.3295 19.1051 14.6676 19.0921 14.3437 18.6602L14.3427 18.6582L13.7265 17.8448L13.7255 17.8418L13.6484 17.7481C13.5469 17.6328 13.4313 17.5316 13.3056 17.4463C13.8393 17.6236 14.4085 17.7217 14.9999 17.7217C15.6068 17.7217 16.1906 17.619 16.7363 17.4327ZM10.207 14.7891C10.7327 15.8138 11.5769 16.6455 12.6064 17.1582C12.4553 17.1299 12.3003 17.1206 12.1454 17.1319L12.0253 17.1446L11.0195 17.2764C10.4832 17.3445 10.0169 16.8915 10.0839 16.3409L10.2158 15.3291L10.2148 15.3282C10.2399 15.1478 10.2366 14.9662 10.207 14.7891ZM19.8271 14.7217C19.7859 14.9216 19.7774 15.1289 19.8066 15.334L19.9384 16.3409C20.0064 16.8779 19.5517 17.3444 18.9999 17.2754H18.999L17.996 17.1446H17.997C17.7896 17.1149 17.5798 17.1238 17.3779 17.1661C18.437 16.6429 19.3016 15.7826 19.8271 14.7217ZM20.1103 10.6455C20.2177 10.8034 20.3497 10.9456 20.5038 11.0635L20.5058 11.0645L21.3163 11.6768V11.6778C21.7342 12.0017 21.7464 12.6725 21.3076 13.0264L20.5058 13.6329L20.5038 13.6348C20.3431 13.7578 20.2054 13.9063 20.0956 14.0723C20.2809 13.5283 20.3837 12.9456 20.3837 12.3379C20.3837 11.7459 20.2865 11.1775 20.1103 10.6455ZM9.87103 10.7012C9.70586 11.2181 9.61616 11.768 9.61615 12.3379C9.61615 12.9233 9.71032 13.486 9.88275 14.0127C9.7806 13.871 9.65851 13.7426 9.51752 13.6348L9.51556 13.6329L8.70697 13.0215H8.70795C8.25501 12.6675 8.26819 12.0056 8.70013 11.6817L8.70209 11.6807L9.51556 11.0645L9.51752 11.0635C9.65318 10.9598 9.77125 10.8366 9.87103 10.7012ZM19.0019 7.42094C19.5057 7.35659 19.9479 7.7532 19.9443 8.25785L19.9374 8.36039L19.8066 9.36332C19.779 9.55647 19.7852 9.75145 19.8203 9.94047C19.3056 8.90901 18.4704 8.06779 17.4472 7.54398C17.6255 7.57421 17.8085 7.57804 17.9902 7.55277L17.9911 7.55375L19.0019 7.42094ZM11.0195 7.42094V7.42191L12.0312 7.55375V7.55277C12.2006 7.5764 12.3711 7.57463 12.538 7.54984C11.5396 8.06481 10.7241 8.88225 10.2109 9.87894C10.2305 9.74859 10.2371 9.6161 10.2275 9.48344L10.2148 9.36332L10.0839 8.35746C10.0158 7.82115 10.4688 7.35376 11.0195 7.42094ZM14.3378 6.04594C14.6918 5.59287 15.3537 5.6062 15.6777 6.03812L15.6796 6.04008L16.2949 6.85355L16.2968 6.85551C16.4054 6.99745 16.5348 7.12014 16.6777 7.22269C16.1489 7.04901 15.585 6.95414 14.9999 6.95414C14.4294 6.95415 13.8803 7.04294 13.3652 7.20707C13.4997 7.10762 13.6223 6.99044 13.7255 6.85551L13.7265 6.85355L14.3378 6.04594Z" stroke="#38464A"/>
</svg>
