<svg width="17" height="17" viewBox="0 0 17 17" fill="none" xmlns="http://www.w3.org/2000/svg">
<path d="M7.15702 2.94141H9.70702C9.70702 2.60325 9.57269 2.27895 9.33358 2.03984C9.09447 1.80074 8.77017 1.66641 8.43202 1.66641C8.09387 1.66641 7.76957 1.80074 7.53046 2.03984C7.29135 2.27895 7.15702 2.60325 7.15702 2.94141ZM6.30702 2.94141C6.30702 2.37782 6.5309 1.83732 6.92942 1.4388C7.32793 1.04029 7.86844 0.816406 8.43202 0.816406C8.99561 0.816406 9.53611 1.04029 9.93462 1.4388C10.3331 1.83732 10.557 2.37782 10.557 2.94141H14.807C14.9197 2.94141 15.0278 2.98618 15.1075 3.06589C15.1872 3.14559 15.232 3.25369 15.232 3.36641C15.232 3.47912 15.1872 3.58722 15.1075 3.66693C15.0278 3.74663 14.9197 3.79141 14.807 3.79141H13.9111L12.8962 12.5838C12.8245 13.2053 12.5268 13.7788 12.0597 14.195C11.5927 14.6113 10.9889 14.8414 10.3632 14.8414H6.50082C5.87518 14.8414 5.27139 14.6113 4.80434 14.195C4.33728 13.7788 4.03956 13.2053 3.96782 12.5838L2.95292 3.79141H2.05702C1.9443 3.79141 1.8362 3.74663 1.7565 3.66693C1.6768 3.58722 1.63202 3.47912 1.63202 3.36641C1.63202 3.25369 1.6768 3.14559 1.7565 3.06589C1.8362 2.98618 1.9443 2.94141 2.05702 2.94141H6.30702ZM4.81187 12.4869C4.85983 12.9012 5.05841 13.2834 5.36983 13.5608C5.68124 13.8382 6.08377 13.9915 6.50082 13.9914H10.3632C10.7803 13.9915 11.1828 13.8382 11.4942 13.5608C11.8056 13.2834 12.0042 12.9012 12.0522 12.4869L13.0552 3.79141H3.80887L4.81187 12.4869ZM7.15702 5.9164C7.26974 5.9164 7.37784 5.96118 7.45754 6.04088C7.53724 6.12059 7.58202 6.22869 7.58202 6.3414V11.4414C7.58202 11.5541 7.53724 11.6622 7.45754 11.7419C7.37784 11.8216 7.26974 11.8664 7.15702 11.8664C7.0443 11.8664 6.9362 11.8216 6.8565 11.7419C6.7768 11.6622 6.73202 11.5541 6.73202 11.4414V6.3414C6.73202 6.22869 6.7768 6.12059 6.8565 6.04088C6.9362 5.96118 7.0443 5.9164 7.15702 5.9164ZM10.132 6.3414C10.132 6.22869 10.0872 6.12059 10.0075 6.04088C9.92784 5.96118 9.81974 5.9164 9.70702 5.9164C9.59431 5.9164 9.4862 5.96118 9.4065 6.04088C9.3268 6.12059 9.28202 6.22869 9.28202 6.3414V11.4414C9.28202 11.5541 9.3268 11.6622 9.4065 11.7419C9.4862 11.8216 9.59431 11.8664 9.70702 11.8664C9.81974 11.8664 9.92784 11.8216 10.0075 11.7419C10.0872 11.6622 10.132 11.5541 10.132 11.4414V6.3414Z" fill="#37B559"/>
</svg>
