<svg width="30" height="30" viewBox="0 0 30 30" fill="none" xmlns="http://www.w3.org/2000/svg">
<path d="M18.619 8.71153C18.8124 8.664 19.0143 8.66038 19.2094 8.70096C19.4045 8.74155 19.5875 8.82526 19.7448 8.94575C19.902 9.06624 20.0292 9.22034 20.1167 9.39635C20.2043 9.57236 20.2498 9.76566 20.25 9.96156V11.0104H20.6875C21.0356 11.0104 21.3694 11.1463 21.6156 11.3881C21.8617 11.63 22 11.958 22 12.3V20.0374C22 20.3795 21.8617 20.7075 21.6156 20.9493C21.3694 21.1911 21.0356 21.327 20.6875 21.327H9.3125C8.9644 21.327 8.63056 21.1911 8.38442 20.9493C8.13828 20.7075 8 20.3795 8 20.0374V12.3C7.99988 11.968 8.13006 11.6488 8.36346 11.4087C8.59685 11.1687 8.91547 11.0263 9.253 11.0113L18.619 8.71153ZM12.8667 11.0104H19.375V9.96156C19.3748 9.89634 19.3596 9.83201 19.3304 9.77344C19.3012 9.71486 19.2588 9.66359 19.2064 9.6235C19.1541 9.5834 19.0931 9.55554 19.0282 9.54202C18.9633 9.5285 18.896 9.52968 18.8316 9.54546L12.8667 11.0104ZM9.3125 11.8701C9.19647 11.8701 9.08519 11.9154 9.00314 11.996C8.92109 12.0766 8.875 12.186 8.875 12.3V20.0374C8.875 20.1514 8.92109 20.2608 9.00314 20.3414C9.08519 20.422 9.19647 20.4673 9.3125 20.4673H20.6875C20.8035 20.4673 20.9148 20.422 20.9969 20.3414C21.0789 20.2608 21.125 20.1514 21.125 20.0374V12.3C21.125 12.186 21.0789 12.0766 20.9969 11.996C20.9148 11.9154 20.8035 11.8701 20.6875 11.8701H9.3125Z" fill="#38464A"/>
</svg>
